<svg xmlns="http://www.w3.org/2000/svg" xmlns:xlink="http://www.w3.org/1999/xlink" width="600" zoomAndPan="magnify" viewBox="0 0 450 112.499997" height="150" preserveAspectRatio="xMidYMid meet" version="1.0"><defs><clipPath id="38aa2c2710"><path d="M 0.121094 0.488281 L 16 0.488281 L 16 17 L 0.121094 17 Z M 0.121094 0.488281 " clip-rule="nonzero"/></clipPath><clipPath id="895c80745b"><path d="M 0.121094 37 L 15 37 L 15 57 L 0.121094 57 Z M 0.121094 37 " clip-rule="nonzero"/></clipPath><clipPath id="654d560138"><path d="M 0.121094 28 L 24 28 L 24 57.707031 L 0.121094 57.707031 Z M 0.121094 28 " clip-rule="nonzero"/></clipPath><clipPath id="6e7f92a426"><path d="M 0.121094 22 L 15 22 L 15 31 L 0.121094 31 Z M 0.121094 22 " clip-rule="nonzero"/></clipPath><clipPath id="cc9ffbca73"><path d="M 0.121094 13 L 24 13 L 24 40 L 0.121094 40 Z M 0.121094 13 " clip-rule="nonzero"/></clipPath><clipPath id="014fb7f02a"><path d="M 33 13 L 57.339844 13 L 57.339844 51 L 33 51 Z M 33 13 " clip-rule="nonzero"/></clipPath><clipPath id="187425e12f"><path d="M 33 39 L 57.339844 39 L 57.339844 57.707031 L 33 57.707031 Z M 33 39 " clip-rule="nonzero"/></clipPath><clipPath id="6bbb257de2"><path d="M 41 0.488281 L 57.339844 0.488281 L 57.339844 17 L 41 17 Z M 41 0.488281 " clip-rule="nonzero"/></clipPath><clipPath id="b105ee382e"><path d="M 20 18 L 37 18 L 37 57.707031 L 20 57.707031 Z M 20 18 " clip-rule="nonzero"/></clipPath><clipPath id="12b70b7515"><path d="M 20 0.488281 L 37 0.488281 L 37 14 L 20 14 Z M 20 0.488281 " clip-rule="nonzero"/></clipPath><clipPath id="e0a91fdb8c"><path d="M 79.949219 4.628906 L 319.894531 4.628906 L 319.894531 53.847656 L 79.949219 53.847656 Z M 79.949219 4.628906 " clip-rule="nonzero"/></clipPath><clipPath id="de5d6f6ed0"><rect x="0" width="320" y="0" height="59"/></clipPath><clipPath id="145d88c7c8"><path d="M 65.121094 79.488281 L 380.222656 79.488281 L 380.222656 99.648438 L 65.121094 99.648438 Z M 65.121094 79.488281 " clip-rule="nonzero"/></clipPath></defs><g transform="matrix(1, 0, 0, 1, 65, 15)"><g clip-path="url(#de5d6f6ed0)"><g clip-path="url(#38aa2c2710)"><path fill="#ffffff" d="M 2.203125 0.488281 L 13.644531 0.488281 C 13.921875 0.488281 14.1875 0.542969 14.441406 0.648438 C 14.699219 0.753906 14.921875 0.90625 15.117188 1.097656 C 15.3125 1.292969 15.464844 1.519531 15.570312 1.773438 C 15.675781 2.03125 15.726562 2.292969 15.726562 2.570312 L 15.726562 14.015625 C 15.726562 14.289062 15.675781 14.554688 15.570312 14.808594 C 15.464844 15.066406 15.3125 15.289062 15.117188 15.484375 C 14.921875 15.679688 14.699219 15.832031 14.441406 15.9375 C 14.1875 16.042969 13.921875 16.09375 13.644531 16.09375 L 2.203125 16.09375 C 1.925781 16.09375 1.660156 16.042969 1.40625 15.9375 C 1.152344 15.832031 0.925781 15.679688 0.730469 15.484375 C 0.535156 15.289062 0.386719 15.066406 0.28125 14.808594 C 0.175781 14.554688 0.121094 14.289062 0.121094 14.015625 L 0.121094 2.570312 C 0.121094 2.292969 0.175781 2.03125 0.28125 1.773438 C 0.386719 1.519531 0.535156 1.292969 0.730469 1.097656 C 0.925781 0.90625 1.152344 0.753906 1.40625 0.648438 C 1.660156 0.542969 1.925781 0.488281 2.203125 0.488281 Z M 2.203125 0.488281 " fill-opacity="1" fill-rule="nonzero"/></g><g clip-path="url(#895c80745b)"><path fill="#204623" d="M 2.203125 37.679688 L 13.644531 37.679688 C 13.820312 37.679688 13.984375 37.714844 14.144531 37.78125 C 14.304688 37.847656 14.445312 37.941406 14.566406 38.0625 C 14.6875 38.183594 14.78125 38.324219 14.847656 38.484375 C 14.914062 38.644531 14.945312 38.808594 14.945312 38.980469 L 14.945312 55.625 C 14.945312 55.800781 14.914062 55.964844 14.847656 56.125 C 14.78125 56.285156 14.6875 56.425781 14.566406 56.546875 C 14.445312 56.667969 14.304688 56.761719 14.144531 56.828125 C 13.984375 56.894531 13.820312 56.925781 13.644531 56.925781 L 2.203125 56.925781 C 2.03125 56.925781 1.863281 56.894531 1.707031 56.828125 C 1.546875 56.761719 1.40625 56.667969 1.285156 56.546875 C 1.160156 56.425781 1.066406 56.285156 1 56.125 C 0.9375 55.964844 0.902344 55.800781 0.902344 55.625 L 0.902344 38.980469 C 0.902344 38.808594 0.9375 38.644531 1 38.484375 C 1.066406 38.324219 1.160156 38.183594 1.285156 38.0625 C 1.40625 37.941406 1.546875 37.847656 1.707031 37.78125 C 1.863281 37.714844 2.03125 37.679688 2.203125 37.679688 Z M 2.203125 37.679688 " fill-opacity="1" fill-rule="nonzero"/></g><g clip-path="url(#654d560138)"><path stroke-linecap="butt" transform="matrix(0.520156, 0, 0, 0.520156, 0.122349, 0.490056)" fill="none" stroke-linejoin="miter" d="M 4.000289 71.497021 L 25.996379 71.497021 C 26.334318 71.497021 26.649728 71.564609 26.957628 71.692275 C 27.265528 71.819941 27.53588 72.000175 27.768682 72.232978 C 28.001485 72.465781 28.181719 72.736132 28.309385 73.044032 C 28.437051 73.351932 28.497129 73.667342 28.497129 73.997772 L 28.497129 105.996863 C 28.497129 106.334802 28.437051 106.650212 28.309385 106.958112 C 28.181719 107.266013 28.001485 107.536364 27.768682 107.769167 C 27.53588 108.001969 27.265528 108.182203 26.957628 108.309869 C 26.649728 108.437535 26.334318 108.497613 25.996379 108.497613 L 4.000289 108.497613 C 3.66986 108.497613 3.34694 108.437535 3.046549 108.309869 C 2.738649 108.182203 2.468298 108.001969 2.235495 107.769167 C 1.995183 107.536364 1.814949 107.266013 1.687283 106.958112 C 1.567127 106.650212 1.499539 106.334802 1.499539 105.996863 L 1.499539 73.997772 C 1.499539 73.667342 1.567127 73.351932 1.687283 73.044032 C 1.814949 72.736132 1.995183 72.465781 2.235495 72.232978 C 2.468298 72.000175 2.738649 71.819941 3.046549 71.692275 C 3.34694 71.564609 3.66986 71.497021 4.000289 71.497021 Z M 4.000289 71.497021 " stroke="#73bf7a" stroke-width="3" stroke-opacity="1" stroke-miterlimit="4"/></g><g clip-path="url(#6e7f92a426)"><path fill="#661714" d="M 2.203125 22.078125 L 13.644531 22.078125 C 13.820312 22.078125 13.984375 22.109375 14.144531 22.175781 C 14.304688 22.242188 14.445312 22.335938 14.566406 22.457031 C 14.6875 22.578125 14.78125 22.71875 14.847656 22.878906 C 14.914062 23.039062 14.945312 23.203125 14.945312 23.375 L 14.945312 29.617188 C 14.945312 29.792969 14.914062 29.957031 14.847656 30.117188 C 14.78125 30.277344 14.6875 30.417969 14.566406 30.539062 C 14.445312 30.660156 14.304688 30.753906 14.144531 30.820312 C 13.984375 30.886719 13.820312 30.917969 13.644531 30.917969 L 2.203125 30.917969 C 2.03125 30.917969 1.863281 30.886719 1.707031 30.820312 C 1.546875 30.753906 1.40625 30.660156 1.285156 30.539062 C 1.160156 30.417969 1.066406 30.277344 1 30.117188 C 0.9375 29.957031 0.902344 29.792969 0.902344 29.617188 L 0.902344 23.375 C 0.902344 23.203125 0.9375 23.039062 1 22.878906 C 1.066406 22.71875 1.160156 22.578125 1.285156 22.457031 C 1.40625 22.335938 1.546875 22.242188 1.707031 22.175781 C 1.863281 22.109375 2.03125 22.078125 2.203125 22.078125 Z M 2.203125 22.078125 " fill-opacity="1" fill-rule="nonzero"/></g><g clip-path="url(#cc9ffbca73)"><path stroke-linecap="butt" transform="matrix(0.520156, 0, 0, 0.520156, 0.122349, 0.490056)" fill="none" stroke-linejoin="miter" d="M 4.000289 41.503036 L 25.996379 41.503036 C 26.334318 41.503036 26.649728 41.563114 26.957628 41.69078 C 27.265528 41.818446 27.53588 41.998681 27.768682 42.231483 C 28.001485 42.464286 28.181719 42.734637 28.309385 43.042537 C 28.437051 43.350437 28.497129 43.665847 28.497129 43.996277 L 28.497129 55.996875 C 28.497129 56.334814 28.437051 56.650224 28.309385 56.958124 C 28.181719 57.266024 28.001485 57.536376 27.768682 57.769178 C 27.53588 58.001981 27.265528 58.182215 26.957628 58.309881 C 26.649728 58.437547 26.334318 58.497625 25.996379 58.497625 L 4.000289 58.497625 C 3.66986 58.497625 3.34694 58.437547 3.046549 58.309881 C 2.738649 58.182215 2.468298 58.001981 2.235495 57.769178 C 1.995183 57.536376 1.814949 57.266024 1.687283 56.958124 C 1.567127 56.650224 1.499539 56.334814 1.499539 55.996875 L 1.499539 43.996277 C 1.499539 43.665847 1.567127 43.350437 1.687283 43.042537 C 1.814949 42.734637 1.995183 42.464286 2.235495 42.231483 C 2.468298 41.998681 2.738649 41.818446 3.046549 41.69078 C 3.34694 41.563114 3.66986 41.503036 4.000289 41.503036 Z M 4.000289 41.503036 " stroke="#da4944" stroke-width="3" stroke-opacity="1" stroke-miterlimit="4"/></g><path fill="#142c52" d="M 43.816406 22.078125 L 55.257812 22.078125 C 55.429688 22.078125 55.597656 22.109375 55.757812 22.175781 C 55.914062 22.242188 56.054688 22.335938 56.179688 22.457031 C 56.300781 22.578125 56.394531 22.71875 56.460938 22.878906 C 56.527344 23.039062 56.558594 23.203125 56.558594 23.375 L 56.558594 40.023438 C 56.558594 40.195312 56.527344 40.359375 56.460938 40.519531 C 56.394531 40.679688 56.300781 40.820312 56.179688 40.941406 C 56.054688 41.0625 55.914062 41.15625 55.757812 41.222656 C 55.597656 41.289062 55.429688 41.324219 55.257812 41.324219 L 43.816406 41.324219 C 43.644531 41.324219 43.476562 41.289062 43.316406 41.222656 C 43.160156 41.15625 43.019531 41.0625 42.894531 40.941406 C 42.773438 40.820312 42.679688 40.679688 42.613281 40.519531 C 42.546875 40.359375 42.515625 40.195312 42.515625 40.023438 L 42.515625 23.375 C 42.515625 23.203125 42.546875 23.039062 42.613281 22.878906 C 42.679688 22.71875 42.773438 22.578125 42.894531 22.457031 C 43.019531 22.335938 43.160156 22.242188 43.316406 22.175781 C 43.476562 22.109375 43.644531 22.078125 43.816406 22.078125 Z M 43.816406 22.078125 " fill-opacity="1" fill-rule="nonzero"/><g clip-path="url(#014fb7f02a)"><path stroke-linecap="butt" transform="matrix(0.520156, 0, 0, 0.520156, 0.122349, 0.490056)" fill="none" stroke-linejoin="miter" d="M 84.001772 41.503036 L 105.997862 41.503036 C 106.328291 41.503036 106.651211 41.563114 106.959111 41.69078 C 107.259502 41.818446 107.529853 41.998681 107.770165 42.231483 C 108.002968 42.464286 108.183202 42.734637 108.310868 43.042537 C 108.438534 43.350437 108.498612 43.665847 108.498612 43.996277 L 108.498612 76.002878 C 108.498612 76.333307 108.438534 76.648717 108.310868 76.956618 C 108.183202 77.264518 108.002968 77.534869 107.770165 77.767672 C 107.529853 78.000474 107.259502 78.180709 106.959111 78.308375 C 106.651211 78.43604 106.328291 78.503628 105.997862 78.503628 L 84.001772 78.503628 C 83.671343 78.503628 83.348423 78.43604 83.040523 78.308375 C 82.740132 78.180709 82.469781 78.000474 82.229469 77.767672 C 81.996666 77.534869 81.816432 77.264518 81.688766 76.956618 C 81.5611 76.648717 81.501022 76.333307 81.501022 76.002878 L 81.501022 43.996277 C 81.501022 43.665847 81.5611 43.350437 81.688766 43.042537 C 81.816432 42.734637 81.996666 42.464286 82.229469 42.231483 C 82.469781 41.998681 82.740132 41.818446 83.040523 41.69078 C 83.348423 41.563114 83.671343 41.503036 84.001772 41.503036 Z M 84.001772 41.503036 " stroke="#5c8bd6" stroke-width="3" stroke-opacity="1" stroke-miterlimit="4"/></g><path fill="#624104" d="M 43.816406 48.085938 L 55.257812 48.085938 C 55.429688 48.085938 55.597656 48.117188 55.757812 48.183594 C 55.914062 48.25 56.054688 48.34375 56.179688 48.464844 C 56.300781 48.585938 56.394531 48.726562 56.460938 48.886719 C 56.527344 49.046875 56.558594 49.210938 56.558594 49.382812 L 56.558594 55.625 C 56.558594 55.800781 56.527344 55.964844 56.460938 56.125 C 56.394531 56.285156 56.300781 56.425781 56.179688 56.546875 C 56.054688 56.667969 55.914062 56.761719 55.757812 56.828125 C 55.597656 56.894531 55.429688 56.925781 55.257812 56.925781 L 43.816406 56.925781 C 43.644531 56.925781 43.476562 56.894531 43.316406 56.828125 C 43.160156 56.761719 43.019531 56.667969 42.894531 56.546875 C 42.773438 56.425781 42.679688 56.285156 42.613281 56.125 C 42.546875 55.964844 42.515625 55.800781 42.515625 55.625 L 42.515625 49.382812 C 42.515625 49.210938 42.546875 49.046875 42.613281 48.886719 C 42.679688 48.726562 42.773438 48.585938 42.894531 48.464844 C 43.019531 48.34375 43.160156 48.25 43.316406 48.183594 C 43.476562 48.117188 43.644531 48.085938 43.816406 48.085938 Z M 43.816406 48.085938 " fill-opacity="1" fill-rule="nonzero"/><g clip-path="url(#187425e12f)"><path stroke-linecap="butt" transform="matrix(0.520156, 0, 0, 0.520156, 0.122349, 0.490056)" fill="none" stroke-linejoin="miter" d="M 84.001772 91.503024 L 105.997862 91.503024 C 106.328291 91.503024 106.651211 91.563103 106.959111 91.690769 C 107.259502 91.818434 107.529853 91.998669 107.770165 92.231471 C 108.002968 92.464274 108.183202 92.734625 108.310868 93.042525 C 108.438534 93.350426 108.498612 93.665836 108.498612 93.996265 L 108.498612 105.996863 C 108.498612 106.334802 108.438534 106.650212 108.310868 106.958112 C 108.183202 107.266013 108.002968 107.536364 107.770165 107.769167 C 107.529853 108.001969 107.259502 108.182203 106.959111 108.309869 C 106.651211 108.437535 106.328291 108.497613 105.997862 108.497613 L 84.001772 108.497613 C 83.671343 108.497613 83.348423 108.437535 83.040523 108.309869 C 82.740132 108.182203 82.469781 108.001969 82.229469 107.769167 C 81.996666 107.536364 81.816432 107.266013 81.688766 106.958112 C 81.5611 106.650212 81.501022 106.334802 81.501022 105.996863 L 81.501022 93.996265 C 81.501022 93.665836 81.5611 93.350426 81.688766 93.042525 C 81.816432 92.734625 81.996666 92.464274 82.229469 92.231471 C 82.469781 91.998669 82.740132 91.818434 83.040523 91.690769 C 83.348423 91.563103 83.671343 91.503024 84.001772 91.503024 Z M 84.001772 91.503024 " stroke="#f7b53b" stroke-width="3" stroke-opacity="1" stroke-miterlimit="4"/></g><g clip-path="url(#6bbb257de2)"><path fill="#ffffff" d="M 43.816406 0.488281 L 55.257812 0.488281 C 55.535156 0.488281 55.800781 0.542969 56.054688 0.648438 C 56.308594 0.753906 56.535156 0.90625 56.730469 1.097656 C 56.925781 1.292969 57.074219 1.519531 57.179688 1.773438 C 57.285156 2.03125 57.339844 2.292969 57.339844 2.570312 L 57.339844 14.015625 C 57.339844 14.289062 57.285156 14.554688 57.179688 14.808594 C 57.074219 15.066406 56.925781 15.289062 56.730469 15.484375 C 56.535156 15.679688 56.308594 15.832031 56.054688 15.9375 C 55.800781 16.042969 55.535156 16.09375 55.257812 16.09375 L 43.816406 16.09375 C 43.539062 16.09375 43.273438 16.042969 43.019531 15.9375 C 42.765625 15.832031 42.539062 15.679688 42.34375 15.484375 C 42.148438 15.289062 42 15.066406 41.894531 14.808594 C 41.789062 14.554688 41.734375 14.289062 41.734375 14.015625 L 41.734375 2.570312 C 41.734375 2.292969 41.789062 2.03125 41.894531 1.773438 C 42 1.519531 42.148438 1.292969 42.34375 1.097656 C 42.539062 0.90625 42.765625 0.753906 43.019531 0.648438 C 43.273438 0.542969 43.539062 0.488281 43.816406 0.488281 Z M 43.816406 0.488281 " fill-opacity="1" fill-rule="nonzero"/></g><g clip-path="url(#b105ee382e)"><path fill="#ffffff" d="M 23.007812 18.695312 L 34.453125 18.695312 C 34.730469 18.695312 34.992188 18.75 35.25 18.855469 C 35.503906 18.960938 35.730469 19.109375 35.925781 19.304688 C 36.117188 19.5 36.269531 19.726562 36.375 19.980469 C 36.480469 20.234375 36.535156 20.5 36.535156 20.777344 L 36.535156 55.625 C 36.535156 55.902344 36.480469 56.167969 36.375 56.421875 C 36.269531 56.679688 36.117188 56.902344 35.925781 57.097656 C 35.730469 57.292969 35.503906 57.441406 35.25 57.550781 C 34.992188 57.65625 34.730469 57.707031 34.453125 57.707031 L 23.007812 57.707031 C 22.734375 57.707031 22.46875 57.65625 22.214844 57.550781 C 21.957031 57.441406 21.734375 57.292969 21.539062 57.097656 C 21.34375 56.902344 21.191406 56.679688 21.085938 56.421875 C 20.980469 56.167969 20.929688 55.902344 20.929688 55.625 L 20.929688 20.777344 C 20.929688 20.5 20.980469 20.234375 21.085938 19.980469 C 21.191406 19.726562 21.34375 19.5 21.539062 19.304688 C 21.734375 19.109375 21.957031 18.960938 22.214844 18.855469 C 22.46875 18.75 22.734375 18.695312 23.007812 18.695312 Z M 23.007812 18.695312 " fill-opacity="1" fill-rule="nonzero"/></g><g clip-path="url(#12b70b7515)"><path fill="#ffffff" d="M 23.007812 0.488281 L 34.453125 0.488281 C 34.730469 0.488281 34.992188 0.542969 35.25 0.648438 C 35.503906 0.753906 35.730469 0.90625 35.925781 1.097656 C 36.117188 1.292969 36.269531 1.519531 36.375 1.773438 C 36.480469 2.03125 36.535156 2.292969 36.535156 2.570312 L 36.535156 11.414062 C 36.535156 11.6875 36.480469 11.953125 36.375 12.210938 C 36.269531 12.464844 36.117188 12.691406 35.925781 12.882812 C 35.730469 13.078125 35.503906 13.230469 35.25 13.335938 C 34.992188 13.441406 34.730469 13.492188 34.453125 13.492188 L 23.007812 13.492188 C 22.734375 13.492188 22.46875 13.441406 22.214844 13.335938 C 21.957031 13.230469 21.734375 13.078125 21.539062 12.882812 C 21.34375 12.691406 21.191406 12.464844 21.085938 12.210938 C 20.980469 11.953125 20.929688 11.6875 20.929688 11.414062 L 20.929688 2.570312 C 20.929688 2.292969 20.980469 2.03125 21.085938 1.773438 C 21.191406 1.519531 21.34375 1.292969 21.539062 1.097656 C 21.734375 0.90625 21.957031 0.753906 22.214844 0.648438 C 22.46875 0.542969 22.734375 0.488281 23.007812 0.488281 Z M 23.007812 0.488281 " fill-opacity="1" fill-rule="nonzero"/></g><g clip-path="url(#e0a91fdb8c)"><path fill="#ffffff" d="M 95.453125 53.65625 L 95.453125 7.390625 L 103.269531 7.390625 L 103.269531 53.65625 Z M 79.949219 13.171875 L 79.949219 6.027344 L 118.773438 6.027344 L 118.773438 13.171875 Z M 146.929688 53.65625 L 146.929688 34.808594 C 146.929688 32.632812 146.226562 30.839844 144.824219 29.433594 C 143.460938 28.027344 141.695312 27.324219 139.519531 27.324219 C 138.070312 27.324219 136.777344 27.644531 135.644531 28.277344 C 134.511719 28.914062 133.625 29.796875 132.992188 30.929688 C 132.359375 32.066406 132.039062 33.359375 132.039062 34.808594 L 129.117188 33.175781 C 129.117188 30.679688 129.660156 28.480469 130.75 26.578125 C 131.835938 24.625 133.332031 23.105469 135.234375 22.019531 C 137.183594 20.882812 139.359375 20.316406 141.761719 20.316406 C 144.210938 20.316406 146.386719 20.863281 148.289062 21.949219 C 150.195312 23.039062 151.691406 24.558594 152.777344 26.507812 C 153.863281 28.414062 154.410156 30.636719 154.410156 33.175781 L 154.410156 53.65625 Z M 124.5625 53.65625 L 124.5625 4.667969 L 132.039062 4.667969 L 132.039062 53.65625 Z M 162.078125 53.65625 L 162.078125 20.996094 L 169.554688 20.996094 L 169.554688 53.65625 Z M 165.816406 15.011719 C 164.546875 15.011719 163.480469 14.578125 162.621094 13.71875 C 161.804688 12.855469 161.398438 11.789062 161.398438 10.519531 C 161.398438 9.25 161.804688 8.183594 162.621094 7.320312 C 163.480469 6.460938 164.546875 6.027344 165.816406 6.027344 C 167.132812 6.027344 168.195312 6.460938 169.011719 7.320312 C 169.828125 8.183594 170.234375 9.25 170.234375 10.519531 C 170.234375 11.789062 169.828125 12.855469 169.011719 13.71875 C 168.195312 14.578125 167.132812 15.011719 165.816406 15.011719 Z M 200.3125 53.65625 L 200.3125 34.808594 C 200.3125 32.632812 199.609375 30.839844 198.207031 29.433594 C 196.847656 28.027344 195.078125 27.324219 192.902344 27.324219 C 191.453125 27.324219 190.160156 27.644531 189.027344 28.277344 C 187.894531 28.914062 187.011719 29.796875 186.375 30.929688 C 185.742188 32.066406 185.421875 33.359375 185.421875 34.808594 L 182.5 33.175781 C 182.5 30.679688 183.042969 28.480469 184.132812 26.578125 C 185.21875 24.625 186.714844 23.105469 188.621094 22.019531 C 190.566406 20.882812 192.742188 20.316406 195.144531 20.316406 C 197.59375 20.316406 199.769531 20.953125 201.671875 22.222656 C 203.578125 23.445312 205.074219 25.058594 206.160156 27.054688 C 207.25 29.003906 207.792969 31.042969 207.792969 33.175781 L 207.792969 53.65625 Z M 177.945312 53.65625 L 177.945312 20.996094 L 185.421875 20.996094 L 185.421875 53.65625 Z M 236.128906 53.65625 L 222.328125 36.988281 L 236.0625 20.996094 L 244.96875 20.996094 L 229.195312 38.960938 L 229.535156 34.671875 L 245.648438 53.65625 Z M 215.394531 53.65625 L 215.394531 4.667969 L 222.871094 4.667969 L 222.871094 53.65625 Z M 251.136719 53.65625 L 251.136719 6.027344 L 258.957031 6.027344 L 258.957031 53.65625 Z M 256.507812 53.65625 L 256.507812 46.511719 L 283.160156 46.511719 L 283.160156 53.65625 Z M 256.507812 32.769531 L 256.507812 25.894531 L 280.851562 25.894531 L 280.851562 32.769531 Z M 256.507812 13.171875 L 256.507812 6.027344 L 282.820312 6.027344 L 282.820312 13.171875 Z M 310.890625 53.65625 L 301.507812 39.84375 L 300.148438 38.621094 L 287.503906 20.996094 L 296.546875 20.996094 L 304.910156 33.109375 L 306.199219 34.265625 L 319.867188 53.65625 Z M 286.890625 53.65625 L 300.082031 35.355469 L 304.433594 40.730469 L 295.59375 53.65625 Z M 306.878906 38.484375 L 302.460938 33.175781 L 310.621094 20.996094 L 319.253906 20.996094 Z M 306.878906 38.484375 " fill-opacity="1" fill-rule="nonzero"/></g></g></g><g clip-path="url(#145d88c7c8)"><path fill="#ffffff" d="M 66.128906 88.242188 L 66.128906 86.917969 L 70.371094 86.917969 C 71.332031 86.917969 72.066406 86.675781 72.574219 86.191406 C 73.085938 85.691406 73.339844 85.03125 73.339844 84.207031 C 73.339844 83.410156 73.085938 82.761719 72.574219 82.261719 C 72.066406 81.75 71.332031 81.496094 70.371094 81.496094 L 66.128906 81.496094 L 66.128906 80.128906 L 70.371094 80.128906 C 71.316406 80.128906 72.128906 80.304688 72.808594 80.664062 C 73.488281 81.003906 74.003906 81.480469 74.355469 82.09375 C 74.722656 82.703125 74.90625 83.402344 74.90625 84.183594 C 74.90625 84.996094 74.722656 85.707031 74.355469 86.320312 C 74.003906 86.929688 73.488281 87.40625 72.808594 87.75 C 72.128906 88.078125 71.316406 88.242188 70.371094 88.242188 Z M 65.132812 94.816406 L 65.132812 80.128906 L 66.679688 80.128906 L 66.679688 94.816406 Z M 73.953125 94.816406 L 68.484375 88.027344 L 69.988281 87.535156 L 75.945312 94.816406 Z M 82.148438 95.027344 C 81.144531 95.027344 80.246094 94.800781 79.457031 94.34375 C 78.664062 93.890625 78.035156 93.265625 77.570312 92.46875 C 77.117188 91.671875 76.890625 90.773438 76.890625 89.777344 C 76.890625 88.796875 77.117188 87.914062 77.570312 87.128906 C 78.023438 86.332031 78.636719 85.707031 79.414062 85.25 C 80.191406 84.796875 81.058594 84.570312 82.023438 84.570312 C 82.925781 84.570312 83.726562 84.773438 84.417969 85.1875 C 85.125 85.601562 85.675781 86.175781 86.070312 86.917969 C 86.480469 87.644531 86.6875 88.480469 86.6875 89.4375 C 86.6875 89.550781 86.679688 89.683594 86.664062 89.839844 C 86.652344 89.984375 86.621094 90.15625 86.578125 90.355469 L 77.949219 90.355469 L 77.949219 89.074219 L 85.773438 89.074219 L 85.246094 89.542969 C 85.257812 88.800781 85.132812 88.167969 84.863281 87.644531 C 84.609375 87.101562 84.234375 86.6875 83.738281 86.40625 C 83.257812 86.105469 82.671875 85.957031 81.980469 85.957031 C 81.257812 85.957031 80.628906 86.113281 80.09375 86.425781 C 79.554688 86.738281 79.132812 87.179688 78.820312 87.75 C 78.523438 88.304688 78.375 88.964844 78.375 89.734375 C 78.375 90.503906 78.53125 91.179688 78.839844 91.761719 C 79.167969 92.347656 79.613281 92.800781 80.175781 93.128906 C 80.757812 93.457031 81.421875 93.621094 82.171875 93.621094 C 82.777344 93.621094 83.335938 93.511719 83.84375 93.300781 C 84.355469 93.070312 84.785156 92.738281 85.136719 92.296875 L 86.09375 93.277344 C 85.625 93.832031 85.046875 94.265625 84.355469 94.582031 C 83.675781 94.878906 82.941406 95.027344 82.148438 95.027344 Z M 90.132812 94.816406 L 90.132812 80.554688 L 91.617188 80.554688 L 91.617188 94.816406 Z M 87.609375 86.128906 L 87.609375 84.78125 L 94.117188 84.78125 L 94.117188 86.128906 Z M 103.414062 94.816406 L 103.414062 88.921875 C 103.414062 88.042969 103.152344 87.328125 102.628906 86.789062 C 102.117188 86.234375 101.441406 85.957031 100.59375 85.957031 C 100.011719 85.957031 99.503906 86.085938 99.066406 86.339844 C 98.628906 86.597656 98.28125 86.945312 98.027344 87.386719 C 97.773438 87.828125 97.644531 88.332031 97.644531 88.902344 L 96.96875 88.519531 C 96.96875 87.761719 97.144531 87.085938 97.496094 86.488281 C 97.851562 85.890625 98.324219 85.421875 98.917969 85.082031 C 99.527344 84.738281 100.21875 84.570312 100.996094 84.570312 C 101.757812 84.570312 102.4375 84.746094 103.03125 85.101562 C 103.625 85.445312 104.082031 85.921875 104.410156 86.53125 C 104.746094 87.144531 104.917969 87.855469 104.917969 88.667969 L 104.917969 94.816406 Z M 96.160156 94.816406 L 96.160156 79.703125 L 97.644531 79.703125 L 97.644531 94.816406 Z M 107.695312 94.816406 L 107.695312 84.78125 L 109.199219 84.78125 L 109.199219 94.816406 Z M 108.4375 82.605469 C 108.152344 82.605469 107.914062 82.503906 107.714844 82.304688 C 107.515625 82.09375 107.417969 81.84375 107.417969 81.558594 C 107.417969 81.261719 107.515625 81.011719 107.714844 80.8125 C 107.914062 80.613281 108.152344 80.511719 108.4375 80.511719 C 108.746094 80.511719 108.996094 80.613281 109.179688 80.8125 C 109.375 81.011719 109.476562 81.261719 109.476562 81.558594 C 109.476562 81.84375 109.375 82.09375 109.179688 82.304688 C 108.996094 82.503906 108.746094 82.605469 108.4375 82.605469 Z M 119.457031 94.816406 L 119.457031 88.921875 C 119.457031 88.042969 119.195312 87.328125 118.675781 86.789062 C 118.164062 86.234375 117.488281 85.957031 116.636719 85.957031 C 116.058594 85.957031 115.550781 86.085938 115.113281 86.339844 C 114.675781 86.597656 114.328125 86.945312 114.074219 87.386719 C 113.820312 87.828125 113.691406 88.332031 113.691406 88.902344 L 113.011719 88.519531 C 113.011719 87.761719 113.191406 87.085938 113.542969 86.488281 C 113.898438 85.890625 114.371094 85.421875 114.964844 85.082031 C 115.570312 84.738281 116.265625 84.570312 117.042969 84.570312 C 117.804688 84.570312 118.484375 84.753906 119.078125 85.125 C 119.671875 85.492188 120.128906 85.992188 120.453125 86.617188 C 120.792969 87.246094 120.964844 87.925781 120.964844 88.667969 L 120.964844 94.816406 Z M 112.207031 94.816406 L 112.207031 84.78125 L 113.691406 84.78125 L 113.691406 94.816406 Z M 130.164062 94.816406 L 125.074219 89.671875 L 130.078125 84.78125 L 131.921875 84.78125 L 126.476562 90.054688 L 126.539062 89.199219 L 132.136719 94.816406 Z M 123.738281 94.816406 L 123.738281 79.703125 L 125.222656 79.703125 L 125.222656 94.816406 Z M 133.636719 94.816406 L 133.636719 84.78125 L 135.140625 84.78125 L 135.140625 94.816406 Z M 134.378906 82.605469 C 134.097656 82.605469 133.855469 82.503906 133.65625 82.304688 C 133.460938 82.09375 133.359375 81.84375 133.359375 81.558594 C 133.359375 81.261719 133.460938 81.011719 133.65625 80.8125 C 133.855469 80.613281 134.097656 80.511719 134.378906 80.511719 C 134.691406 80.511719 134.9375 80.613281 135.121094 80.8125 C 135.320312 81.011719 135.417969 81.261719 135.417969 81.558594 C 135.417969 81.84375 135.320312 82.09375 135.121094 82.304688 C 134.9375 82.503906 134.691406 82.605469 134.378906 82.605469 Z M 145.402344 94.816406 L 145.402344 88.921875 C 145.402344 88.042969 145.140625 87.328125 144.617188 86.789062 C 144.109375 86.234375 143.429688 85.957031 142.582031 85.957031 C 142 85.957031 141.492188 86.085938 141.054688 86.339844 C 140.617188 86.597656 140.269531 86.945312 140.015625 87.386719 C 139.761719 87.828125 139.632812 88.332031 139.632812 88.902344 L 138.957031 88.519531 C 138.957031 87.761719 139.132812 87.085938 139.484375 86.488281 C 139.839844 85.890625 140.3125 85.421875 140.90625 85.082031 C 141.515625 84.738281 142.207031 84.570312 142.984375 84.570312 C 143.746094 84.570312 144.425781 84.753906 145.019531 85.125 C 145.613281 85.492188 146.074219 85.992188 146.398438 86.617188 C 146.738281 87.246094 146.90625 87.925781 146.90625 88.667969 L 146.90625 94.816406 Z M 138.148438 94.816406 L 138.148438 84.78125 L 139.632812 84.78125 L 139.632812 94.816406 Z M 153.796875 99.253906 C 152.792969 99.253906 151.894531 99.0625 151.101562 98.679688 C 150.324219 98.308594 149.695312 97.78125 149.214844 97.097656 L 150.191406 96.117188 C 150.585938 96.65625 151.089844 97.078125 151.695312 97.375 C 152.304688 97.675781 153.019531 97.824219 153.839844 97.824219 C 154.96875 97.824219 155.867188 97.519531 156.53125 96.90625 C 157.210938 96.296875 157.546875 95.460938 157.546875 94.410156 L 157.546875 91.910156 L 157.84375 89.628906 L 157.546875 87.363281 L 157.546875 84.78125 L 159.03125 84.78125 L 159.03125 94.410156 C 159.03125 95.378906 158.8125 96.222656 158.375 96.949219 C 157.9375 97.675781 157.324219 98.238281 156.53125 98.636719 C 155.753906 99.046875 154.839844 99.253906 153.796875 99.253906 Z M 153.902344 94.707031 C 152.984375 94.707031 152.15625 94.488281 151.421875 94.046875 C 150.6875 93.605469 150.105469 93 149.683594 92.230469 C 149.257812 91.464844 149.046875 90.59375 149.046875 89.628906 C 149.046875 88.660156 149.25 87.800781 149.660156 87.046875 C 150.085938 86.277344 150.664062 85.671875 151.398438 85.230469 C 152.136719 84.789062 152.960938 84.570312 153.878906 84.570312 C 154.65625 84.570312 155.351562 84.71875 155.957031 85.015625 C 156.582031 85.316406 157.074219 85.742188 157.441406 86.296875 C 157.824219 86.839844 158.058594 87.480469 158.140625 88.21875 L 158.140625 91.058594 C 158.058594 91.785156 157.824219 92.425781 157.441406 92.980469 C 157.0625 93.519531 156.566406 93.945312 155.957031 94.261719 C 155.351562 94.558594 154.664062 94.707031 153.902344 94.707031 Z M 154.175781 93.277344 C 154.871094 93.277344 155.472656 93.128906 155.980469 92.828125 C 156.503906 92.53125 156.90625 92.109375 157.1875 91.570312 C 157.484375 91.015625 157.632812 90.367188 157.632812 89.628906 C 157.632812 88.902344 157.484375 88.269531 157.1875 87.726562 C 156.90625 87.1875 156.503906 86.761719 155.980469 86.445312 C 155.457031 86.132812 154.847656 85.976562 154.15625 85.976562 C 153.464844 85.976562 152.839844 86.132812 152.289062 86.445312 C 151.753906 86.761719 151.328125 87.1875 151.019531 87.726562 C 150.722656 88.269531 150.574219 88.902344 150.574219 89.628906 C 150.574219 90.339844 150.730469 90.972656 151.039062 91.527344 C 151.351562 92.082031 151.773438 92.515625 152.3125 92.828125 C 152.847656 93.128906 153.472656 93.277344 154.175781 93.277344 Z M 168.125 94.816406 L 168.125 80.554688 L 169.609375 80.554688 L 169.609375 94.816406 Z M 165.601562 86.128906 L 165.601562 84.78125 L 172.109375 84.78125 L 172.109375 86.128906 Z M 181.40625 94.816406 L 181.40625 88.921875 C 181.40625 88.042969 181.144531 87.328125 180.621094 86.789062 C 180.113281 86.234375 179.433594 85.957031 178.585938 85.957031 C 178.007812 85.957031 177.5 86.085938 177.058594 86.339844 C 176.621094 86.597656 176.277344 86.945312 176.019531 87.386719 C 175.765625 87.828125 175.640625 88.332031 175.640625 88.902344 L 174.960938 88.519531 C 174.960938 87.761719 175.136719 87.085938 175.492188 86.488281 C 175.84375 85.890625 176.316406 85.421875 176.910156 85.082031 C 177.519531 84.738281 178.210938 84.570312 178.988281 84.570312 C 179.753906 84.570312 180.429688 84.746094 181.023438 85.101562 C 181.617188 85.445312 182.078125 85.921875 182.402344 86.53125 C 182.742188 87.144531 182.910156 87.855469 182.910156 88.667969 L 182.910156 94.816406 Z M 174.15625 94.816406 L 174.15625 79.703125 L 175.640625 79.703125 L 175.640625 94.816406 Z M 190.289062 95.027344 C 189.285156 95.027344 188.386719 94.800781 187.597656 94.34375 C 186.804688 93.890625 186.175781 93.265625 185.710938 92.46875 C 185.257812 91.671875 185.03125 90.773438 185.03125 89.777344 C 185.03125 88.796875 185.257812 87.914062 185.710938 87.128906 C 186.160156 86.332031 186.777344 85.707031 187.554688 85.25 C 188.332031 84.796875 189.199219 84.570312 190.160156 84.570312 C 191.066406 84.570312 191.863281 84.773438 192.558594 85.1875 C 193.265625 85.601562 193.816406 86.175781 194.210938 86.917969 C 194.621094 87.644531 194.824219 88.480469 194.824219 89.4375 C 194.824219 89.550781 194.820312 89.683594 194.804688 89.839844 C 194.789062 89.984375 194.761719 90.15625 194.71875 90.355469 L 186.089844 90.355469 L 186.089844 89.074219 L 193.914062 89.074219 L 193.382812 89.542969 C 193.398438 88.800781 193.269531 88.167969 193.003906 87.644531 C 192.75 87.101562 192.375 86.6875 191.878906 86.40625 C 191.398438 86.105469 190.8125 85.957031 190.117188 85.957031 C 189.398438 85.957031 188.769531 86.113281 188.230469 86.425781 C 187.695312 86.738281 187.269531 87.179688 186.960938 87.75 C 186.664062 88.304688 186.515625 88.964844 186.515625 89.734375 C 186.515625 90.503906 186.671875 91.179688 186.980469 91.761719 C 187.304688 92.347656 187.75 92.800781 188.316406 93.128906 C 188.898438 93.457031 189.5625 93.621094 190.308594 93.621094 C 190.917969 93.621094 191.476562 93.511719 191.984375 93.300781 C 192.492188 93.070312 192.925781 92.738281 193.277344 92.296875 L 194.230469 93.277344 C 193.765625 93.832031 193.1875 94.265625 192.492188 94.582031 C 191.816406 94.878906 191.082031 95.027344 190.289062 95.027344 Z M 207.332031 95.027344 C 206.273438 95.027344 205.324219 94.792969 204.492188 94.324219 C 203.671875 93.839844 203.023438 93.1875 202.542969 92.359375 C 202.0625 91.519531 201.820312 90.582031 201.820312 89.542969 L 201.820312 80.128906 L 203.390625 80.128906 L 203.390625 89.457031 C 203.390625 90.28125 203.558594 91 203.898438 91.613281 C 204.238281 92.226562 204.703125 92.695312 205.296875 93.023438 C 205.90625 93.347656 206.582031 93.511719 207.332031 93.511719 C 208.082031 93.511719 208.746094 93.347656 209.324219 93.023438 C 209.917969 92.695312 210.386719 92.230469 210.726562 91.632812 C 211.078125 91.023438 211.253906 90.304688 211.253906 89.476562 L 211.253906 80.128906 L 212.804688 80.128906 L 212.804688 89.5625 C 212.804688 90.601562 212.5625 91.535156 212.082031 92.359375 C 211.617188 93.1875 210.964844 93.839844 210.132812 94.324219 C 209.3125 94.792969 208.378906 95.027344 207.332031 95.027344 Z M 219.03125 95.027344 C 218.496094 95.027344 217.976562 94.957031 217.484375 94.816406 C 216.988281 94.660156 216.535156 94.445312 216.125 94.175781 C 215.730469 93.902344 215.382812 93.585938 215.089844 93.214844 L 216.042969 92.230469 C 216.4375 92.714844 216.882812 93.078125 217.378906 93.320312 C 217.886719 93.546875 218.453125 93.664062 219.074219 93.664062 C 219.738281 93.664062 220.253906 93.535156 220.621094 93.277344 C 221.003906 93.023438 221.195312 92.667969 221.195312 92.210938 C 221.195312 91.785156 221.058594 91.449219 220.792969 91.207031 C 220.523438 90.964844 220.175781 90.773438 219.753906 90.632812 C 219.34375 90.488281 218.902344 90.355469 218.4375 90.226562 C 217.972656 90.082031 217.527344 89.914062 217.101562 89.714844 C 216.679688 89.5 216.332031 89.207031 216.0625 88.839844 C 215.808594 88.46875 215.679688 87.984375 215.679688 87.386719 C 215.679688 86.816406 215.816406 86.328125 216.085938 85.914062 C 216.367188 85.488281 216.761719 85.160156 217.273438 84.933594 C 217.792969 84.691406 218.410156 84.570312 219.117188 84.570312 C 219.867188 84.570312 220.542969 84.703125 221.152344 84.972656 C 221.757812 85.246094 222.246094 85.644531 222.613281 86.167969 L 221.660156 87.128906 C 221.363281 86.746094 220.988281 86.453125 220.535156 86.253906 C 220.097656 86.042969 219.605469 85.933594 219.050781 85.933594 C 218.417969 85.933594 217.929688 86.0625 217.589844 86.320312 C 217.265625 86.5625 217.101562 86.882812 217.101562 87.28125 C 217.101562 87.664062 217.234375 87.96875 217.503906 88.199219 C 217.773438 88.410156 218.113281 88.589844 218.523438 88.730469 C 218.945312 88.859375 219.390625 88.996094 219.859375 89.136719 C 220.324219 89.265625 220.769531 89.441406 221.195312 89.671875 C 221.617188 89.882812 221.957031 90.183594 222.210938 90.566406 C 222.480469 90.9375 222.613281 91.441406 222.613281 92.082031 C 222.613281 92.980469 222.289062 93.699219 221.640625 94.238281 C 221.003906 94.765625 220.132812 95.027344 219.03125 95.027344 Z M 229.566406 95.027344 C 228.5625 95.027344 227.664062 94.800781 226.871094 94.34375 C 226.082031 93.890625 225.453125 93.265625 224.984375 92.46875 C 224.53125 91.671875 224.308594 90.773438 224.308594 89.777344 C 224.308594 88.796875 224.53125 87.914062 224.984375 87.128906 C 225.4375 86.332031 226.050781 85.707031 226.828125 85.25 C 227.605469 84.796875 228.476562 84.570312 229.4375 84.570312 C 230.34375 84.570312 231.140625 84.773438 231.832031 85.1875 C 232.539062 85.601562 233.089844 86.175781 233.488281 86.917969 C 233.898438 87.644531 234.101562 88.480469 234.101562 89.4375 C 234.101562 89.550781 234.09375 89.683594 234.082031 89.839844 C 234.066406 89.984375 234.039062 90.15625 233.996094 90.355469 L 225.367188 90.355469 L 225.367188 89.074219 L 233.191406 89.074219 L 232.660156 89.542969 C 232.675781 88.800781 232.546875 88.167969 232.277344 87.644531 C 232.023438 87.101562 231.648438 86.6875 231.15625 86.40625 C 230.675781 86.105469 230.089844 85.957031 229.394531 85.957031 C 228.675781 85.957031 228.046875 86.113281 227.507812 86.425781 C 226.972656 86.738281 226.546875 87.179688 226.234375 87.75 C 225.941406 88.304688 225.792969 88.964844 225.792969 89.734375 C 225.792969 90.503906 225.945312 91.179688 226.257812 91.761719 C 226.582031 92.347656 227.027344 92.800781 227.59375 93.128906 C 228.171875 93.457031 228.835938 93.621094 229.585938 93.621094 C 230.195312 93.621094 230.753906 93.511719 231.261719 93.300781 C 231.769531 93.070312 232.199219 92.738281 232.554688 92.296875 L 233.507812 93.277344 C 233.042969 93.832031 232.460938 94.265625 231.769531 94.582031 C 231.089844 94.878906 230.355469 95.027344 229.566406 95.027344 Z M 236.371094 94.816406 L 236.371094 84.78125 L 237.855469 84.78125 L 237.855469 94.816406 Z M 237.855469 88.964844 L 237.242188 88.6875 C 237.242188 87.421875 237.546875 86.417969 238.152344 85.679688 C 238.773438 84.9375 239.625 84.570312 240.699219 84.570312 C 241.191406 84.570312 241.644531 84.660156 242.054688 84.847656 C 242.464844 85.015625 242.847656 85.292969 243.199219 85.679688 L 242.222656 86.726562 C 241.984375 86.453125 241.714844 86.261719 241.417969 86.148438 C 241.136719 86.035156 240.808594 85.976562 240.441406 85.976562 C 239.679688 85.976562 239.058594 86.234375 238.578125 86.746094 C 238.097656 87.246094 237.855469 87.984375 237.855469 88.964844 Z M 250.066406 94.816406 L 250.066406 80.128906 L 251.613281 80.128906 L 251.613281 94.816406 Z M 262.238281 94.816406 L 262.238281 88.921875 C 262.238281 88.042969 261.976562 87.328125 261.453125 86.789062 C 260.945312 86.234375 260.265625 85.957031 259.417969 85.957031 C 258.835938 85.957031 258.328125 86.085938 257.890625 86.339844 C 257.453125 86.597656 257.105469 86.945312 256.851562 87.386719 C 256.597656 87.828125 256.46875 88.332031 256.46875 88.902344 L 255.792969 88.519531 C 255.792969 87.761719 255.96875 87.085938 256.320312 86.488281 C 256.675781 85.890625 257.148438 85.421875 257.742188 85.082031 C 258.351562 84.738281 259.042969 84.570312 259.820312 84.570312 C 260.582031 84.570312 261.261719 84.753906 261.855469 85.125 C 262.449219 85.492188 262.910156 85.992188 263.234375 86.617188 C 263.574219 87.246094 263.742188 87.925781 263.742188 88.667969 L 263.742188 94.816406 Z M 254.984375 94.816406 L 254.984375 84.78125 L 256.46875 84.78125 L 256.46875 94.816406 Z M 267.941406 94.816406 L 267.941406 80.554688 L 269.425781 80.554688 L 269.425781 94.816406 Z M 265.417969 86.128906 L 265.417969 84.78125 L 271.925781 84.78125 L 271.925781 86.128906 Z M 278.21875 95.027344 C 277.21875 95.027344 276.320312 94.800781 275.527344 94.34375 C 274.734375 93.890625 274.105469 93.265625 273.640625 92.46875 C 273.1875 91.671875 272.960938 90.773438 272.960938 89.777344 C 272.960938 88.796875 273.1875 87.914062 273.640625 87.128906 C 274.09375 86.332031 274.707031 85.707031 275.484375 85.25 C 276.261719 84.796875 277.132812 84.570312 278.09375 84.570312 C 278.996094 84.570312 279.796875 84.773438 280.488281 85.1875 C 281.195312 85.601562 281.746094 86.175781 282.144531 86.917969 C 282.550781 87.644531 282.757812 88.480469 282.757812 89.4375 C 282.757812 89.550781 282.75 89.683594 282.734375 89.839844 C 282.722656 89.984375 282.695312 90.15625 282.652344 90.355469 L 274.023438 90.355469 L 274.023438 89.074219 L 281.847656 89.074219 L 281.316406 89.542969 C 281.328125 88.800781 281.203125 88.167969 280.933594 87.644531 C 280.679688 87.101562 280.304688 86.6875 279.808594 86.40625 C 279.328125 86.105469 278.742188 85.957031 278.050781 85.957031 C 277.328125 85.957031 276.699219 86.113281 276.164062 86.425781 C 275.625 86.738281 275.203125 87.179688 274.890625 87.75 C 274.59375 88.304688 274.445312 88.964844 274.445312 89.734375 C 274.445312 90.503906 274.601562 91.179688 274.914062 91.761719 C 275.238281 92.347656 275.683594 92.800781 276.25 93.128906 C 276.828125 93.457031 277.492188 93.621094 278.242188 93.621094 C 278.847656 93.621094 279.40625 93.511719 279.917969 93.300781 C 280.425781 93.070312 280.855469 92.738281 281.210938 92.296875 L 282.164062 93.277344 C 281.699219 93.832031 281.117188 94.265625 280.425781 94.582031 C 279.746094 94.878906 279.011719 95.027344 278.21875 95.027344 Z M 285.027344 94.816406 L 285.027344 84.78125 L 286.511719 84.78125 L 286.511719 94.816406 Z M 286.511719 88.964844 L 285.898438 88.6875 C 285.898438 87.421875 286.199219 86.417969 286.808594 85.679688 C 287.429688 84.9375 288.277344 84.570312 289.351562 84.570312 C 289.847656 84.570312 290.300781 84.660156 290.710938 84.847656 C 291.121094 85.015625 291.5 85.292969 291.855469 85.679688 L 290.878906 86.726562 C 290.640625 86.453125 290.371094 86.261719 290.074219 86.148438 C 289.792969 86.035156 289.464844 85.976562 289.097656 85.976562 C 288.335938 85.976562 287.714844 86.234375 287.234375 86.746094 C 286.753906 87.246094 286.511719 87.984375 286.511719 88.964844 Z M 294.792969 94.816406 L 294.792969 83.074219 C 294.792969 82.378906 294.941406 81.757812 295.238281 81.21875 C 295.550781 80.675781 295.972656 80.257812 296.511719 79.957031 C 297.0625 79.644531 297.683594 79.488281 298.375 79.488281 C 298.914062 79.488281 299.386719 79.589844 299.796875 79.789062 C 300.207031 79.972656 300.582031 80.234375 300.921875 80.578125 L 299.945312 81.558594 C 299.71875 81.332031 299.480469 81.167969 299.222656 81.066406 C 298.984375 80.953125 298.703125 80.898438 298.375 80.898438 C 297.710938 80.898438 297.195312 81.097656 296.828125 81.496094 C 296.476562 81.878906 296.296875 82.417969 296.296875 83.117188 L 296.296875 94.816406 Z M 292.292969 86.128906 L 292.292969 84.78125 L 299.628906 84.78125 L 299.628906 86.128906 Z M 305.359375 95.027344 C 304.410156 95.027344 303.5625 94.800781 302.8125 94.34375 C 302.0625 93.875 301.46875 93.25 301.03125 92.46875 C 300.609375 91.683594 300.398438 90.800781 300.398438 89.820312 C 300.398438 88.824219 300.609375 87.933594 301.03125 87.152344 C 301.46875 86.355469 302.0625 85.730469 302.8125 85.273438 C 303.5625 84.804688 304.402344 84.570312 305.335938 84.570312 C 306.101562 84.570312 306.777344 84.726562 307.371094 85.039062 C 307.980469 85.335938 308.46875 85.765625 308.835938 86.320312 C 309.214844 86.859375 309.449219 87.492188 309.535156 88.21875 L 309.535156 91.355469 C 309.449219 92.082031 309.214844 92.722656 308.835938 93.277344 C 308.46875 93.832031 307.980469 94.265625 307.371094 94.582031 C 306.777344 94.878906 306.105469 95.027344 305.359375 95.027344 Z M 305.589844 93.597656 C 306.621094 93.597656 307.449219 93.25 308.070312 92.550781 C 308.707031 91.855469 309.027344 90.9375 309.027344 89.796875 C 309.027344 89.042969 308.878906 88.382812 308.582031 87.8125 C 308.296875 87.230469 307.894531 86.78125 307.371094 86.46875 C 306.863281 86.140625 306.261719 85.976562 305.570312 85.976562 C 304.863281 85.976562 304.234375 86.140625 303.683594 86.46875 C 303.144531 86.796875 302.714844 87.25 302.390625 87.835938 C 302.078125 88.402344 301.921875 89.058594 301.921875 89.796875 C 301.921875 90.539062 302.078125 91.191406 302.390625 91.761719 C 302.714844 92.332031 303.152344 92.78125 303.703125 93.105469 C 304.253906 93.433594 304.882812 93.597656 305.589844 93.597656 Z M 308.941406 94.816406 L 308.941406 92.125 L 309.238281 89.648438 L 308.941406 87.238281 L 308.941406 84.78125 L 310.425781 84.78125 L 310.425781 94.816406 Z M 317.972656 95.027344 C 316.996094 95.027344 316.113281 94.800781 315.320312 94.34375 C 314.542969 93.875 313.921875 93.242188 313.457031 92.445312 C 313.003906 91.648438 312.777344 90.757812 312.777344 89.777344 C 312.777344 88.796875 313.003906 87.914062 313.457031 87.128906 C 313.921875 86.332031 314.542969 85.707031 315.320312 85.25 C 316.113281 84.796875 316.996094 84.570312 317.972656 84.570312 C 318.722656 84.570312 319.421875 84.710938 320.070312 84.996094 C 320.722656 85.28125 321.273438 85.679688 321.722656 86.191406 L 320.75 87.195312 C 320.410156 86.808594 320 86.519531 319.519531 86.320312 C 319.039062 86.105469 318.523438 86 317.972656 86 C 317.265625 86 316.636719 86.164062 316.085938 86.488281 C 315.535156 86.816406 315.101562 87.265625 314.792969 87.835938 C 314.480469 88.390625 314.324219 89.039062 314.324219 89.777344 C 314.324219 90.503906 314.480469 91.15625 314.792969 91.742188 C 315.101562 92.308594 315.535156 92.757812 316.085938 93.085938 C 316.636719 93.414062 317.265625 93.578125 317.972656 93.578125 C 318.539062 93.578125 319.058594 93.476562 319.539062 93.277344 C 320.019531 93.066406 320.429688 92.765625 320.769531 92.382812 L 321.765625 93.386719 C 321.300781 93.910156 320.734375 94.316406 320.070312 94.601562 C 319.421875 94.886719 318.722656 95.027344 317.972656 95.027344 Z M 328.261719 95.027344 C 327.261719 95.027344 326.363281 94.800781 325.570312 94.34375 C 324.78125 93.890625 324.148438 93.265625 323.683594 92.46875 C 323.230469 91.671875 323.003906 90.773438 323.003906 89.777344 C 323.003906 88.796875 323.230469 87.914062 323.683594 87.128906 C 324.136719 86.332031 324.75 85.707031 325.527344 85.25 C 326.304688 84.796875 327.175781 84.570312 328.136719 84.570312 C 329.039062 84.570312 329.839844 84.773438 330.53125 85.1875 C 331.238281 85.601562 331.789062 86.175781 332.1875 86.917969 C 332.59375 87.644531 332.800781 88.480469 332.800781 89.4375 C 332.800781 89.550781 332.792969 89.683594 332.78125 89.839844 C 332.765625 89.984375 332.738281 90.15625 332.695312 90.355469 L 324.066406 90.355469 L 324.066406 89.074219 L 331.890625 89.074219 L 331.359375 89.542969 C 331.371094 88.800781 331.246094 88.167969 330.976562 87.644531 C 330.722656 87.101562 330.347656 86.6875 329.851562 86.40625 C 329.371094 86.105469 328.785156 85.957031 328.09375 85.957031 C 327.371094 85.957031 326.742188 86.113281 326.207031 86.425781 C 325.667969 86.738281 325.246094 87.179688 324.933594 87.75 C 324.636719 88.304688 324.488281 88.964844 324.488281 89.734375 C 324.488281 90.503906 324.644531 91.179688 324.957031 91.761719 C 325.28125 92.347656 325.726562 92.800781 326.292969 93.128906 C 326.871094 93.457031 327.535156 93.621094 328.285156 93.621094 C 328.890625 93.621094 329.449219 93.511719 329.960938 93.300781 C 330.46875 93.070312 330.898438 92.738281 331.253906 92.296875 L 332.207031 93.277344 C 331.742188 93.832031 331.160156 94.265625 330.46875 94.582031 C 329.789062 94.878906 329.054688 95.027344 328.261719 95.027344 Z M 344.140625 95.027344 C 343.179688 95.027344 342.304688 94.792969 341.511719 94.324219 C 340.734375 93.855469 340.113281 93.222656 339.648438 92.425781 C 339.195312 91.628906 338.96875 90.738281 338.96875 89.757812 C 338.96875 88.789062 339.195312 87.914062 339.648438 87.128906 C 340.113281 86.347656 340.734375 85.730469 341.511719 85.273438 C 342.304688 84.804688 343.179688 84.570312 344.140625 84.570312 C 345.117188 84.570312 345.992188 84.796875 346.769531 85.25 C 347.546875 85.707031 348.164062 86.332031 348.613281 87.128906 C 349.082031 87.914062 349.316406 88.789062 349.316406 89.757812 C 349.316406 90.753906 349.082031 91.648438 348.613281 92.445312 C 348.164062 93.226562 347.546875 93.855469 346.769531 94.324219 C 345.992188 94.792969 345.117188 95.027344 344.140625 95.027344 Z M 344.140625 93.578125 C 344.847656 93.578125 345.46875 93.414062 346.007812 93.085938 C 346.558594 92.757812 346.988281 92.304688 347.300781 91.71875 C 347.625 91.136719 347.789062 90.480469 347.789062 89.757812 C 347.789062 89.03125 347.625 88.390625 347.300781 87.835938 C 346.988281 87.265625 346.558594 86.816406 346.007812 86.488281 C 345.46875 86.164062 344.847656 86 344.140625 86 C 343.449219 86 342.828125 86.164062 342.277344 86.488281 C 341.722656 86.816406 341.292969 87.265625 340.984375 87.835938 C 340.671875 88.390625 340.515625 89.03125 340.515625 89.757812 C 340.515625 90.496094 340.671875 91.15625 340.984375 91.742188 C 341.292969 92.308594 341.722656 92.757812 342.277344 93.085938 C 342.828125 93.414062 343.449219 93.578125 344.140625 93.578125 Z M 352.785156 94.816406 L 352.785156 83.074219 C 352.785156 82.378906 352.933594 81.757812 353.230469 81.21875 C 353.542969 80.675781 353.96875 80.257812 354.503906 79.957031 C 355.054688 79.644531 355.675781 79.488281 356.371094 79.488281 C 356.90625 79.488281 357.378906 79.589844 357.789062 79.789062 C 358.199219 79.972656 358.574219 80.234375 358.914062 80.578125 L 357.9375 81.558594 C 357.710938 81.332031 357.472656 81.167969 357.21875 81.066406 C 356.976562 80.953125 356.695312 80.898438 356.371094 80.898438 C 355.707031 80.898438 355.191406 81.097656 354.824219 81.496094 C 354.46875 81.878906 354.292969 82.417969 354.292969 83.117188 L 354.292969 94.816406 Z M 350.285156 86.128906 L 350.285156 84.78125 L 357.621094 84.78125 L 357.621094 86.128906 Z M 362.921875 94.816406 L 368.902344 80.128906 L 370.066406 80.128906 L 375.984375 94.816406 L 374.308594 94.816406 L 369.15625 81.835938 L 369.769531 81.835938 L 364.574219 94.816406 Z M 365.65625 90.992188 L 365.65625 89.605469 L 373.289062 89.605469 L 373.289062 90.992188 Z M 378.476562 94.816406 L 378.476562 80.128906 L 380.023438 80.128906 L 380.023438 94.816406 Z M 378.476562 94.816406 " fill-opacity="1" fill-rule="nonzero"/></g></svg>