<svg xmlns="http://www.w3.org/2000/svg" xmlns:xlink="http://www.w3.org/1999/xlink" width="600" zoomAndPan="magnify" viewBox="0 0 450 112.499997" height="150" preserveAspectRatio="xMidYMid meet" version="1.0"><defs><clipPath id="14523e29cd"><path d="M 0.121094 0.488281 L 16 0.488281 L 16 17 L 0.121094 17 Z M 0.121094 0.488281 " clip-rule="nonzero"/></clipPath><clipPath id="501dd734da"><path d="M 0.121094 37 L 15 37 L 15 57 L 0.121094 57 Z M 0.121094 37 " clip-rule="nonzero"/></clipPath><clipPath id="7624478fcb"><path d="M 0.121094 28 L 24 28 L 24 57.707031 L 0.121094 57.707031 Z M 0.121094 28 " clip-rule="nonzero"/></clipPath><clipPath id="6a985a7c45"><path d="M 0.121094 22 L 15 22 L 15 31 L 0.121094 31 Z M 0.121094 22 " clip-rule="nonzero"/></clipPath><clipPath id="510c47924d"><path d="M 0.121094 13 L 24 13 L 24 40 L 0.121094 40 Z M 0.121094 13 " clip-rule="nonzero"/></clipPath><clipPath id="23275d5b09"><path d="M 33 13 L 57.339844 13 L 57.339844 51 L 33 51 Z M 33 13 " clip-rule="nonzero"/></clipPath><clipPath id="cb34812ff4"><path d="M 33 39 L 57.339844 39 L 57.339844 57.707031 L 33 57.707031 Z M 33 39 " clip-rule="nonzero"/></clipPath><clipPath id="c0ec9f9b93"><path d="M 41 0.488281 L 57.339844 0.488281 L 57.339844 17 L 41 17 Z M 41 0.488281 " clip-rule="nonzero"/></clipPath><clipPath id="1dc6b74cd8"><path d="M 20 18 L 37 18 L 37 57.707031 L 20 57.707031 Z M 20 18 " clip-rule="nonzero"/></clipPath><clipPath id="ead9b95e17"><path d="M 20 0.488281 L 37 0.488281 L 37 14 L 20 14 Z M 20 0.488281 " clip-rule="nonzero"/></clipPath><clipPath id="0f9a8767d5"><path d="M 79.949219 4.628906 L 319.894531 4.628906 L 319.894531 53.847656 L 79.949219 53.847656 Z M 79.949219 4.628906 " clip-rule="nonzero"/></clipPath><clipPath id="bba46ef7de"><rect x="0" width="320" y="0" height="59"/></clipPath><clipPath id="98cd879157"><path d="M 67.5625 80.792969 L 382.664062 80.792969 L 382.664062 100.953125 L 67.5625 100.953125 Z M 67.5625 80.792969 " clip-rule="nonzero"/></clipPath></defs><g transform="matrix(1, 0, 0, 1, 65, 15)"><g clip-path="url(#bba46ef7de)"><g clip-path="url(#14523e29cd)"><path fill="#ffffff" d="M 2.203125 0.488281 L 13.644531 0.488281 C 13.921875 0.488281 14.1875 0.542969 14.441406 0.648438 C 14.699219 0.753906 14.921875 0.90625 15.117188 1.097656 C 15.3125 1.292969 15.464844 1.519531 15.570312 1.773438 C 15.675781 2.03125 15.726562 2.292969 15.726562 2.570312 L 15.726562 14.015625 C 15.726562 14.289062 15.675781 14.554688 15.570312 14.808594 C 15.464844 15.066406 15.3125 15.289062 15.117188 15.484375 C 14.921875 15.679688 14.699219 15.832031 14.441406 15.9375 C 14.1875 16.042969 13.921875 16.09375 13.644531 16.09375 L 2.203125 16.09375 C 1.925781 16.09375 1.660156 16.042969 1.40625 15.9375 C 1.152344 15.832031 0.925781 15.679688 0.730469 15.484375 C 0.535156 15.289062 0.386719 15.066406 0.28125 14.808594 C 0.175781 14.554688 0.121094 14.289062 0.121094 14.015625 L 0.121094 2.570312 C 0.121094 2.292969 0.175781 2.03125 0.28125 1.773438 C 0.386719 1.519531 0.535156 1.292969 0.730469 1.097656 C 0.925781 0.90625 1.152344 0.753906 1.40625 0.648438 C 1.660156 0.542969 1.925781 0.488281 2.203125 0.488281 Z M 2.203125 0.488281 " fill-opacity="1" fill-rule="nonzero"/></g><g clip-path="url(#501dd734da)"><path fill="#204623" d="M 2.203125 37.679688 L 13.644531 37.679688 C 13.820312 37.679688 13.984375 37.714844 14.144531 37.78125 C 14.304688 37.847656 14.445312 37.941406 14.566406 38.0625 C 14.6875 38.183594 14.78125 38.324219 14.847656 38.484375 C 14.914062 38.644531 14.945312 38.808594 14.945312 38.980469 L 14.945312 55.625 C 14.945312 55.800781 14.914062 55.964844 14.847656 56.125 C 14.78125 56.285156 14.6875 56.425781 14.566406 56.546875 C 14.445312 56.667969 14.304688 56.761719 14.144531 56.828125 C 13.984375 56.894531 13.820312 56.925781 13.644531 56.925781 L 2.203125 56.925781 C 2.03125 56.925781 1.863281 56.894531 1.707031 56.828125 C 1.546875 56.761719 1.40625 56.667969 1.285156 56.546875 C 1.160156 56.425781 1.066406 56.285156 1 56.125 C 0.9375 55.964844 0.902344 55.800781 0.902344 55.625 L 0.902344 38.980469 C 0.902344 38.808594 0.9375 38.644531 1 38.484375 C 1.066406 38.324219 1.160156 38.183594 1.285156 38.0625 C 1.40625 37.941406 1.546875 37.847656 1.707031 37.78125 C 1.863281 37.714844 2.03125 37.679688 2.203125 37.679688 Z M 2.203125 37.679688 " fill-opacity="1" fill-rule="nonzero"/></g><g clip-path="url(#7624478fcb)"><path stroke-linecap="butt" transform="matrix(0.520156, 0, 0, 0.520156, 0.122349, 0.490056)" fill="none" stroke-linejoin="miter" d="M 4.000289 71.497021 L 25.996379 71.497021 C 26.334318 71.497021 26.649728 71.564609 26.957628 71.692275 C 27.265528 71.819941 27.53588 72.000175 27.768682 72.232978 C 28.001485 72.465781 28.181719 72.736132 28.309385 73.044032 C 28.437051 73.351932 28.497129 73.667342 28.497129 73.997772 L 28.497129 105.996863 C 28.497129 106.334802 28.437051 106.650212 28.309385 106.958112 C 28.181719 107.266013 28.001485 107.536364 27.768682 107.769167 C 27.53588 108.001969 27.265528 108.182203 26.957628 108.309869 C 26.649728 108.437535 26.334318 108.497613 25.996379 108.497613 L 4.000289 108.497613 C 3.66986 108.497613 3.34694 108.437535 3.046549 108.309869 C 2.738649 108.182203 2.468298 108.001969 2.235495 107.769167 C 1.995183 107.536364 1.814949 107.266013 1.687283 106.958112 C 1.567127 106.650212 1.499539 106.334802 1.499539 105.996863 L 1.499539 73.997772 C 1.499539 73.667342 1.567127 73.351932 1.687283 73.044032 C 1.814949 72.736132 1.995183 72.465781 2.235495 72.232978 C 2.468298 72.000175 2.738649 71.819941 3.046549 71.692275 C 3.34694 71.564609 3.66986 71.497021 4.000289 71.497021 Z M 4.000289 71.497021 " stroke="#73bf7a" stroke-width="3" stroke-opacity="1" stroke-miterlimit="4"/></g><g clip-path="url(#6a985a7c45)"><path fill="#661714" d="M 2.203125 22.078125 L 13.644531 22.078125 C 13.820312 22.078125 13.984375 22.109375 14.144531 22.175781 C 14.304688 22.242188 14.445312 22.335938 14.566406 22.457031 C 14.6875 22.578125 14.78125 22.71875 14.847656 22.878906 C 14.914062 23.039062 14.945312 23.203125 14.945312 23.375 L 14.945312 29.617188 C 14.945312 29.792969 14.914062 29.957031 14.847656 30.117188 C 14.78125 30.277344 14.6875 30.417969 14.566406 30.539062 C 14.445312 30.660156 14.304688 30.753906 14.144531 30.820312 C 13.984375 30.886719 13.820312 30.917969 13.644531 30.917969 L 2.203125 30.917969 C 2.03125 30.917969 1.863281 30.886719 1.707031 30.820312 C 1.546875 30.753906 1.40625 30.660156 1.285156 30.539062 C 1.160156 30.417969 1.066406 30.277344 1 30.117188 C 0.9375 29.957031 0.902344 29.792969 0.902344 29.617188 L 0.902344 23.375 C 0.902344 23.203125 0.9375 23.039062 1 22.878906 C 1.066406 22.71875 1.160156 22.578125 1.285156 22.457031 C 1.40625 22.335938 1.546875 22.242188 1.707031 22.175781 C 1.863281 22.109375 2.03125 22.078125 2.203125 22.078125 Z M 2.203125 22.078125 " fill-opacity="1" fill-rule="nonzero"/></g><g clip-path="url(#510c47924d)"><path stroke-linecap="butt" transform="matrix(0.520156, 0, 0, 0.520156, 0.122349, 0.490056)" fill="none" stroke-linejoin="miter" d="M 4.000289 41.503036 L 25.996379 41.503036 C 26.334318 41.503036 26.649728 41.563114 26.957628 41.69078 C 27.265528 41.818446 27.53588 41.998681 27.768682 42.231483 C 28.001485 42.464286 28.181719 42.734637 28.309385 43.042537 C 28.437051 43.350437 28.497129 43.665847 28.497129 43.996277 L 28.497129 55.996875 C 28.497129 56.334814 28.437051 56.650224 28.309385 56.958124 C 28.181719 57.266024 28.001485 57.536376 27.768682 57.769178 C 27.53588 58.001981 27.265528 58.182215 26.957628 58.309881 C 26.649728 58.437547 26.334318 58.497625 25.996379 58.497625 L 4.000289 58.497625 C 3.66986 58.497625 3.34694 58.437547 3.046549 58.309881 C 2.738649 58.182215 2.468298 58.001981 2.235495 57.769178 C 1.995183 57.536376 1.814949 57.266024 1.687283 56.958124 C 1.567127 56.650224 1.499539 56.334814 1.499539 55.996875 L 1.499539 43.996277 C 1.499539 43.665847 1.567127 43.350437 1.687283 43.042537 C 1.814949 42.734637 1.995183 42.464286 2.235495 42.231483 C 2.468298 41.998681 2.738649 41.818446 3.046549 41.69078 C 3.34694 41.563114 3.66986 41.503036 4.000289 41.503036 Z M 4.000289 41.503036 " stroke="#da4944" stroke-width="3" stroke-opacity="1" stroke-miterlimit="4"/></g><path fill="#142c52" d="M 43.816406 22.078125 L 55.257812 22.078125 C 55.429688 22.078125 55.597656 22.109375 55.757812 22.175781 C 55.914062 22.242188 56.054688 22.335938 56.179688 22.457031 C 56.300781 22.578125 56.394531 22.71875 56.460938 22.878906 C 56.527344 23.039062 56.558594 23.203125 56.558594 23.375 L 56.558594 40.023438 C 56.558594 40.195312 56.527344 40.359375 56.460938 40.519531 C 56.394531 40.679688 56.300781 40.820312 56.179688 40.941406 C 56.054688 41.0625 55.914062 41.15625 55.757812 41.222656 C 55.597656 41.289062 55.429688 41.324219 55.257812 41.324219 L 43.816406 41.324219 C 43.644531 41.324219 43.476562 41.289062 43.316406 41.222656 C 43.160156 41.15625 43.019531 41.0625 42.894531 40.941406 C 42.773438 40.820312 42.679688 40.679688 42.613281 40.519531 C 42.546875 40.359375 42.515625 40.195312 42.515625 40.023438 L 42.515625 23.375 C 42.515625 23.203125 42.546875 23.039062 42.613281 22.878906 C 42.679688 22.71875 42.773438 22.578125 42.894531 22.457031 C 43.019531 22.335938 43.160156 22.242188 43.316406 22.175781 C 43.476562 22.109375 43.644531 22.078125 43.816406 22.078125 Z M 43.816406 22.078125 " fill-opacity="1" fill-rule="nonzero"/><g clip-path="url(#23275d5b09)"><path stroke-linecap="butt" transform="matrix(0.520156, 0, 0, 0.520156, 0.122349, 0.490056)" fill="none" stroke-linejoin="miter" d="M 84.001772 41.503036 L 105.997862 41.503036 C 106.328291 41.503036 106.651211 41.563114 106.959111 41.69078 C 107.259502 41.818446 107.529853 41.998681 107.770165 42.231483 C 108.002968 42.464286 108.183202 42.734637 108.310868 43.042537 C 108.438534 43.350437 108.498612 43.665847 108.498612 43.996277 L 108.498612 76.002878 C 108.498612 76.333307 108.438534 76.648717 108.310868 76.956618 C 108.183202 77.264518 108.002968 77.534869 107.770165 77.767672 C 107.529853 78.000474 107.259502 78.180709 106.959111 78.308375 C 106.651211 78.43604 106.328291 78.503628 105.997862 78.503628 L 84.001772 78.503628 C 83.671343 78.503628 83.348423 78.43604 83.040523 78.308375 C 82.740132 78.180709 82.469781 78.000474 82.229469 77.767672 C 81.996666 77.534869 81.816432 77.264518 81.688766 76.956618 C 81.5611 76.648717 81.501022 76.333307 81.501022 76.002878 L 81.501022 43.996277 C 81.501022 43.665847 81.5611 43.350437 81.688766 43.042537 C 81.816432 42.734637 81.996666 42.464286 82.229469 42.231483 C 82.469781 41.998681 82.740132 41.818446 83.040523 41.69078 C 83.348423 41.563114 83.671343 41.503036 84.001772 41.503036 Z M 84.001772 41.503036 " stroke="#5c8bd6" stroke-width="3" stroke-opacity="1" stroke-miterlimit="4"/></g><path fill="#624104" d="M 43.816406 48.085938 L 55.257812 48.085938 C 55.429688 48.085938 55.597656 48.117188 55.757812 48.183594 C 55.914062 48.25 56.054688 48.34375 56.179688 48.464844 C 56.300781 48.585938 56.394531 48.726562 56.460938 48.886719 C 56.527344 49.046875 56.558594 49.210938 56.558594 49.382812 L 56.558594 55.625 C 56.558594 55.800781 56.527344 55.964844 56.460938 56.125 C 56.394531 56.285156 56.300781 56.425781 56.179688 56.546875 C 56.054688 56.667969 55.914062 56.761719 55.757812 56.828125 C 55.597656 56.894531 55.429688 56.925781 55.257812 56.925781 L 43.816406 56.925781 C 43.644531 56.925781 43.476562 56.894531 43.316406 56.828125 C 43.160156 56.761719 43.019531 56.667969 42.894531 56.546875 C 42.773438 56.425781 42.679688 56.285156 42.613281 56.125 C 42.546875 55.964844 42.515625 55.800781 42.515625 55.625 L 42.515625 49.382812 C 42.515625 49.210938 42.546875 49.046875 42.613281 48.886719 C 42.679688 48.726562 42.773438 48.585938 42.894531 48.464844 C 43.019531 48.34375 43.160156 48.25 43.316406 48.183594 C 43.476562 48.117188 43.644531 48.085938 43.816406 48.085938 Z M 43.816406 48.085938 " fill-opacity="1" fill-rule="nonzero"/><g clip-path="url(#cb34812ff4)"><path stroke-linecap="butt" transform="matrix(0.520156, 0, 0, 0.520156, 0.122349, 0.490056)" fill="none" stroke-linejoin="miter" d="M 84.001772 91.503024 L 105.997862 91.503024 C 106.328291 91.503024 106.651211 91.563103 106.959111 91.690769 C 107.259502 91.818434 107.529853 91.998669 107.770165 92.231471 C 108.002968 92.464274 108.183202 92.734625 108.310868 93.042525 C 108.438534 93.350426 108.498612 93.665836 108.498612 93.996265 L 108.498612 105.996863 C 108.498612 106.334802 108.438534 106.650212 108.310868 106.958112 C 108.183202 107.266013 108.002968 107.536364 107.770165 107.769167 C 107.529853 108.001969 107.259502 108.182203 106.959111 108.309869 C 106.651211 108.437535 106.328291 108.497613 105.997862 108.497613 L 84.001772 108.497613 C 83.671343 108.497613 83.348423 108.437535 83.040523 108.309869 C 82.740132 108.182203 82.469781 108.001969 82.229469 107.769167 C 81.996666 107.536364 81.816432 107.266013 81.688766 106.958112 C 81.5611 106.650212 81.501022 106.334802 81.501022 105.996863 L 81.501022 93.996265 C 81.501022 93.665836 81.5611 93.350426 81.688766 93.042525 C 81.816432 92.734625 81.996666 92.464274 82.229469 92.231471 C 82.469781 91.998669 82.740132 91.818434 83.040523 91.690769 C 83.348423 91.563103 83.671343 91.503024 84.001772 91.503024 Z M 84.001772 91.503024 " stroke="#f7b53b" stroke-width="3" stroke-opacity="1" stroke-miterlimit="4"/></g><g clip-path="url(#c0ec9f9b93)"><path fill="#ffffff" d="M 43.816406 0.488281 L 55.257812 0.488281 C 55.535156 0.488281 55.800781 0.542969 56.054688 0.648438 C 56.308594 0.753906 56.535156 0.90625 56.730469 1.097656 C 56.925781 1.292969 57.074219 1.519531 57.179688 1.773438 C 57.285156 2.03125 57.339844 2.292969 57.339844 2.570312 L 57.339844 14.015625 C 57.339844 14.289062 57.285156 14.554688 57.179688 14.808594 C 57.074219 15.066406 56.925781 15.289062 56.730469 15.484375 C 56.535156 15.679688 56.308594 15.832031 56.054688 15.9375 C 55.800781 16.042969 55.535156 16.09375 55.257812 16.09375 L 43.816406 16.09375 C 43.539062 16.09375 43.273438 16.042969 43.019531 15.9375 C 42.765625 15.832031 42.539062 15.679688 42.34375 15.484375 C 42.148438 15.289062 42 15.066406 41.894531 14.808594 C 41.789062 14.554688 41.734375 14.289062 41.734375 14.015625 L 41.734375 2.570312 C 41.734375 2.292969 41.789062 2.03125 41.894531 1.773438 C 42 1.519531 42.148438 1.292969 42.34375 1.097656 C 42.539062 0.90625 42.765625 0.753906 43.019531 0.648438 C 43.273438 0.542969 43.539062 0.488281 43.816406 0.488281 Z M 43.816406 0.488281 " fill-opacity="1" fill-rule="nonzero"/></g><g clip-path="url(#1dc6b74cd8)"><path fill="#ffffff" d="M 23.007812 18.695312 L 34.453125 18.695312 C 34.730469 18.695312 34.992188 18.75 35.25 18.855469 C 35.503906 18.960938 35.730469 19.109375 35.925781 19.304688 C 36.117188 19.5 36.269531 19.726562 36.375 19.980469 C 36.480469 20.234375 36.535156 20.5 36.535156 20.777344 L 36.535156 55.625 C 36.535156 55.902344 36.480469 56.167969 36.375 56.421875 C 36.269531 56.679688 36.117188 56.902344 35.925781 57.097656 C 35.730469 57.292969 35.503906 57.441406 35.25 57.550781 C 34.992188 57.65625 34.730469 57.707031 34.453125 57.707031 L 23.007812 57.707031 C 22.734375 57.707031 22.46875 57.65625 22.214844 57.550781 C 21.957031 57.441406 21.734375 57.292969 21.539062 57.097656 C 21.34375 56.902344 21.191406 56.679688 21.085938 56.421875 C 20.980469 56.167969 20.929688 55.902344 20.929688 55.625 L 20.929688 20.777344 C 20.929688 20.5 20.980469 20.234375 21.085938 19.980469 C 21.191406 19.726562 21.34375 19.5 21.539062 19.304688 C 21.734375 19.109375 21.957031 18.960938 22.214844 18.855469 C 22.46875 18.75 22.734375 18.695312 23.007812 18.695312 Z M 23.007812 18.695312 " fill-opacity="1" fill-rule="nonzero"/></g><g clip-path="url(#ead9b95e17)"><path fill="#ffffff" d="M 23.007812 0.488281 L 34.453125 0.488281 C 34.730469 0.488281 34.992188 0.542969 35.25 0.648438 C 35.503906 0.753906 35.730469 0.90625 35.925781 1.097656 C 36.117188 1.292969 36.269531 1.519531 36.375 1.773438 C 36.480469 2.03125 36.535156 2.292969 36.535156 2.570312 L 36.535156 11.414062 C 36.535156 11.6875 36.480469 11.953125 36.375 12.210938 C 36.269531 12.464844 36.117188 12.691406 35.925781 12.882812 C 35.730469 13.078125 35.503906 13.230469 35.25 13.335938 C 34.992188 13.441406 34.730469 13.492188 34.453125 13.492188 L 23.007812 13.492188 C 22.734375 13.492188 22.46875 13.441406 22.214844 13.335938 C 21.957031 13.230469 21.734375 13.078125 21.539062 12.882812 C 21.34375 12.691406 21.191406 12.464844 21.085938 12.210938 C 20.980469 11.953125 20.929688 11.6875 20.929688 11.414062 L 20.929688 2.570312 C 20.929688 2.292969 20.980469 2.03125 21.085938 1.773438 C 21.191406 1.519531 21.34375 1.292969 21.539062 1.097656 C 21.734375 0.90625 21.957031 0.753906 22.214844 0.648438 C 22.46875 0.542969 22.734375 0.488281 23.007812 0.488281 Z M 23.007812 0.488281 " fill-opacity="1" fill-rule="nonzero"/></g><g clip-path="url(#0f9a8767d5)"><path fill="#ffffff" d="M 95.453125 53.65625 L 95.453125 7.390625 L 103.269531 7.390625 L 103.269531 53.65625 Z M 79.949219 13.171875 L 79.949219 6.027344 L 118.773438 6.027344 L 118.773438 13.171875 Z M 146.929688 53.65625 L 146.929688 34.808594 C 146.929688 32.632812 146.226562 30.839844 144.824219 29.433594 C 143.460938 28.027344 141.695312 27.324219 139.519531 27.324219 C 138.070312 27.324219 136.777344 27.644531 135.644531 28.277344 C 134.511719 28.914062 133.625 29.796875 132.992188 30.929688 C 132.359375 32.066406 132.039062 33.359375 132.039062 34.808594 L 129.117188 33.175781 C 129.117188 30.679688 129.660156 28.480469 130.75 26.578125 C 131.835938 24.625 133.332031 23.105469 135.234375 22.019531 C 137.183594 20.882812 139.359375 20.316406 141.761719 20.316406 C 144.210938 20.316406 146.386719 20.863281 148.289062 21.949219 C 150.195312 23.039062 151.691406 24.558594 152.777344 26.507812 C 153.863281 28.414062 154.410156 30.636719 154.410156 33.175781 L 154.410156 53.65625 Z M 124.5625 53.65625 L 124.5625 4.667969 L 132.039062 4.667969 L 132.039062 53.65625 Z M 162.078125 53.65625 L 162.078125 20.996094 L 169.554688 20.996094 L 169.554688 53.65625 Z M 165.816406 15.011719 C 164.546875 15.011719 163.480469 14.578125 162.621094 13.71875 C 161.804688 12.855469 161.398438 11.789062 161.398438 10.519531 C 161.398438 9.25 161.804688 8.183594 162.621094 7.320312 C 163.480469 6.460938 164.546875 6.027344 165.816406 6.027344 C 167.132812 6.027344 168.195312 6.460938 169.011719 7.320312 C 169.828125 8.183594 170.234375 9.25 170.234375 10.519531 C 170.234375 11.789062 169.828125 12.855469 169.011719 13.71875 C 168.195312 14.578125 167.132812 15.011719 165.816406 15.011719 Z M 200.3125 53.65625 L 200.3125 34.808594 C 200.3125 32.632812 199.609375 30.839844 198.207031 29.433594 C 196.847656 28.027344 195.078125 27.324219 192.902344 27.324219 C 191.453125 27.324219 190.160156 27.644531 189.027344 28.277344 C 187.894531 28.914062 187.011719 29.796875 186.375 30.929688 C 185.742188 32.066406 185.421875 33.359375 185.421875 34.808594 L 182.5 33.175781 C 182.5 30.679688 183.042969 28.480469 184.132812 26.578125 C 185.21875 24.625 186.714844 23.105469 188.621094 22.019531 C 190.566406 20.882812 192.742188 20.316406 195.144531 20.316406 C 197.59375 20.316406 199.769531 20.953125 201.671875 22.222656 C 203.578125 23.445312 205.074219 25.058594 206.160156 27.054688 C 207.25 29.003906 207.792969 31.042969 207.792969 33.175781 L 207.792969 53.65625 Z M 177.945312 53.65625 L 177.945312 20.996094 L 185.421875 20.996094 L 185.421875 53.65625 Z M 236.128906 53.65625 L 222.328125 36.988281 L 236.0625 20.996094 L 244.96875 20.996094 L 229.195312 38.960938 L 229.535156 34.671875 L 245.648438 53.65625 Z M 215.394531 53.65625 L 215.394531 4.667969 L 222.871094 4.667969 L 222.871094 53.65625 Z M 251.136719 53.65625 L 251.136719 6.027344 L 258.957031 6.027344 L 258.957031 53.65625 Z M 256.507812 53.65625 L 256.507812 46.511719 L 283.160156 46.511719 L 283.160156 53.65625 Z M 256.507812 32.769531 L 256.507812 25.894531 L 280.851562 25.894531 L 280.851562 32.769531 Z M 256.507812 13.171875 L 256.507812 6.027344 L 282.820312 6.027344 L 282.820312 13.171875 Z M 310.890625 53.65625 L 301.507812 39.84375 L 300.148438 38.621094 L 287.503906 20.996094 L 296.546875 20.996094 L 304.910156 33.109375 L 306.199219 34.265625 L 319.867188 53.65625 Z M 286.890625 53.65625 L 300.082031 35.355469 L 304.433594 40.730469 L 295.59375 53.65625 Z M 306.878906 38.484375 L 302.460938 33.175781 L 310.621094 20.996094 L 319.253906 20.996094 Z M 306.878906 38.484375 " fill-opacity="1" fill-rule="nonzero"/></g></g></g><g clip-path="url(#98cd879157)"><path fill="#ffffff" d="M 68.570312 89.542969 L 68.570312 88.21875 L 72.8125 88.21875 C 73.773438 88.21875 74.507812 87.976562 75.015625 87.496094 C 75.527344 86.996094 75.78125 86.335938 75.78125 85.507812 C 75.78125 84.710938 75.527344 84.066406 75.015625 83.566406 C 74.507812 83.054688 73.773438 82.796875 72.8125 82.796875 L 68.570312 82.796875 L 68.570312 81.433594 L 72.8125 81.433594 C 73.757812 81.433594 74.570312 81.609375 75.25 81.964844 C 75.929688 82.308594 76.445312 82.785156 76.796875 83.394531 C 77.164062 84.007812 77.347656 84.703125 77.347656 85.488281 C 77.347656 86.296875 77.164062 87.011719 76.796875 87.621094 C 76.445312 88.234375 75.929688 88.710938 75.25 89.050781 C 74.570312 89.378906 73.757812 89.542969 72.8125 89.542969 Z M 67.574219 96.117188 L 67.574219 81.433594 L 69.125 81.433594 L 69.125 96.117188 Z M 76.394531 96.117188 L 70.925781 89.328125 L 72.429688 88.839844 L 78.386719 96.117188 Z M 84.589844 96.332031 C 83.585938 96.332031 82.691406 96.105469 81.898438 95.648438 C 81.105469 95.191406 80.476562 94.566406 80.011719 93.769531 C 79.558594 92.972656 79.332031 92.078125 79.332031 91.082031 C 79.332031 90.097656 79.558594 89.214844 80.011719 88.433594 C 80.464844 87.636719 81.078125 87.011719 81.855469 86.554688 C 82.632812 86.097656 83.503906 85.871094 84.464844 85.871094 C 85.367188 85.871094 86.167969 86.078125 86.859375 86.492188 C 87.566406 86.902344 88.117188 87.480469 88.511719 88.21875 C 88.921875 88.945312 89.128906 89.785156 89.128906 90.738281 C 89.128906 90.851562 89.121094 90.988281 89.105469 91.144531 C 89.09375 91.285156 89.0625 91.457031 89.023438 91.65625 L 80.394531 91.65625 L 80.394531 90.375 L 88.214844 90.375 L 87.6875 90.84375 C 87.699219 90.105469 87.574219 89.472656 87.304688 88.945312 C 87.050781 88.40625 86.675781 87.992188 86.179688 87.707031 C 85.699219 87.410156 85.113281 87.257812 84.421875 87.257812 C 83.699219 87.257812 83.070312 87.414062 82.535156 87.730469 C 81.996094 88.042969 81.574219 88.484375 81.261719 89.050781 C 80.964844 89.609375 80.816406 90.269531 80.816406 91.039062 C 80.816406 91.804688 80.972656 92.480469 81.285156 93.066406 C 81.609375 93.648438 82.054688 94.105469 82.617188 94.433594 C 83.199219 94.757812 83.863281 94.921875 84.613281 94.921875 C 85.21875 94.921875 85.777344 94.816406 86.285156 94.601562 C 86.796875 94.375 87.226562 94.039062 87.582031 93.597656 L 88.535156 94.582031 C 88.066406 95.136719 87.488281 95.570312 86.796875 95.882812 C 86.117188 96.183594 85.382812 96.332031 84.589844 96.332031 Z M 92.574219 96.117188 L 92.574219 81.859375 L 94.058594 81.859375 L 94.058594 96.117188 Z M 90.050781 87.429688 L 90.050781 86.085938 L 96.558594 86.085938 L 96.558594 87.429688 Z M 105.855469 96.117188 L 105.855469 90.226562 C 105.855469 89.34375 105.59375 88.632812 105.070312 88.09375 C 104.5625 87.535156 103.882812 87.257812 103.035156 87.257812 C 102.453125 87.257812 101.945312 87.386719 101.507812 87.644531 C 101.070312 87.898438 100.722656 88.25 100.46875 88.691406 C 100.214844 89.128906 100.085938 89.636719 100.085938 90.207031 L 99.410156 89.820312 C 99.410156 89.066406 99.585938 88.390625 99.9375 87.792969 C 100.292969 87.195312 100.765625 86.726562 101.359375 86.382812 C 101.96875 86.042969 102.660156 85.871094 103.4375 85.871094 C 104.199219 85.871094 104.878906 86.050781 105.472656 86.40625 C 106.066406 86.746094 106.527344 87.222656 106.851562 87.835938 C 107.191406 88.449219 107.359375 89.160156 107.359375 89.96875 L 107.359375 96.117188 Z M 98.601562 96.117188 L 98.601562 81.003906 L 100.085938 81.003906 L 100.085938 96.117188 Z M 110.136719 96.117188 L 110.136719 86.085938 L 111.640625 86.085938 L 111.640625 96.117188 Z M 110.878906 83.90625 C 110.59375 83.90625 110.355469 83.808594 110.15625 83.609375 C 109.960938 83.394531 109.859375 83.148438 109.859375 82.863281 C 109.859375 82.5625 109.960938 82.3125 110.15625 82.113281 C 110.355469 81.914062 110.59375 81.816406 110.878906 81.816406 C 111.1875 81.816406 111.4375 81.914062 111.621094 82.113281 C 111.816406 82.3125 111.917969 82.5625 111.917969 82.863281 C 111.917969 83.148438 111.816406 83.394531 111.621094 83.609375 C 111.4375 83.808594 111.1875 83.90625 110.878906 83.90625 Z M 121.898438 96.117188 L 121.898438 90.226562 C 121.898438 89.34375 121.640625 88.632812 121.117188 88.09375 C 120.605469 87.535156 119.929688 87.257812 119.082031 87.257812 C 118.5 87.257812 117.992188 87.386719 117.554688 87.644531 C 117.117188 87.898438 116.769531 88.25 116.515625 88.691406 C 116.261719 89.128906 116.132812 89.636719 116.132812 90.207031 L 115.453125 89.820312 C 115.453125 89.066406 115.632812 88.390625 115.984375 87.792969 C 116.339844 87.195312 116.8125 86.726562 117.40625 86.382812 C 118.011719 86.042969 118.707031 85.871094 119.484375 85.871094 C 120.246094 85.871094 120.925781 86.058594 121.519531 86.425781 C 122.113281 86.796875 122.570312 87.296875 122.898438 87.921875 C 123.234375 88.546875 123.40625 89.230469 123.40625 89.96875 L 123.40625 96.117188 Z M 114.648438 96.117188 L 114.648438 86.085938 L 116.132812 86.085938 L 116.132812 96.117188 Z M 132.605469 96.117188 L 127.515625 90.972656 L 132.519531 86.085938 L 134.367188 86.085938 L 128.917969 91.359375 L 128.980469 90.503906 L 134.578125 96.117188 Z M 126.183594 96.117188 L 126.183594 81.003906 L 127.664062 81.003906 L 127.664062 96.117188 Z M 136.078125 96.117188 L 136.078125 86.085938 L 137.582031 86.085938 L 137.582031 96.117188 Z M 136.820312 83.90625 C 136.539062 83.90625 136.296875 83.808594 136.101562 83.609375 C 135.902344 83.394531 135.804688 83.148438 135.804688 82.863281 C 135.804688 82.5625 135.902344 82.3125 136.101562 82.113281 C 136.296875 81.914062 136.539062 81.816406 136.820312 81.816406 C 137.132812 81.816406 137.378906 81.914062 137.5625 82.113281 C 137.761719 82.3125 137.859375 82.5625 137.859375 82.863281 C 137.859375 83.148438 137.761719 83.394531 137.5625 83.609375 C 137.378906 83.808594 137.132812 83.90625 136.820312 83.90625 Z M 147.84375 96.117188 L 147.84375 90.226562 C 147.84375 89.34375 147.582031 88.632812 147.058594 88.09375 C 146.550781 87.535156 145.871094 87.257812 145.023438 87.257812 C 144.445312 87.257812 143.933594 87.386719 143.496094 87.644531 C 143.058594 87.898438 142.710938 88.25 142.457031 88.691406 C 142.203125 89.128906 142.078125 89.636719 142.078125 90.207031 L 141.398438 89.820312 C 141.398438 89.066406 141.574219 88.390625 141.929688 87.792969 C 142.28125 87.195312 142.753906 86.726562 143.347656 86.382812 C 143.957031 86.042969 144.648438 85.871094 145.425781 85.871094 C 146.1875 85.871094 146.867188 86.058594 147.460938 86.425781 C 148.054688 86.796875 148.515625 87.296875 148.839844 87.921875 C 149.179688 88.546875 149.347656 89.230469 149.347656 89.96875 L 149.347656 96.117188 Z M 140.59375 96.117188 L 140.59375 86.085938 L 142.078125 86.085938 L 142.078125 96.117188 Z M 156.238281 100.558594 C 155.234375 100.558594 154.335938 100.367188 153.546875 99.980469 C 152.769531 99.613281 152.140625 99.085938 151.65625 98.402344 L 152.632812 97.421875 C 153.027344 97.960938 153.53125 98.378906 154.140625 98.679688 C 154.746094 98.976562 155.460938 99.128906 156.28125 99.128906 C 157.410156 99.128906 158.308594 98.820312 158.972656 98.210938 C 159.652344 97.597656 159.992188 96.765625 159.992188 95.710938 L 159.992188 93.214844 L 160.289062 90.929688 L 159.992188 88.667969 L 159.992188 86.085938 L 161.472656 86.085938 L 161.472656 95.710938 C 161.472656 96.679688 161.253906 97.527344 160.816406 98.253906 C 160.378906 98.976562 159.765625 99.539062 158.972656 99.9375 C 158.195312 100.351562 157.285156 100.558594 156.238281 100.558594 Z M 156.34375 96.011719 C 155.425781 96.011719 154.597656 95.789062 153.863281 95.351562 C 153.128906 94.910156 152.546875 94.304688 152.125 93.535156 C 151.699219 92.765625 151.488281 91.898438 151.488281 90.929688 C 151.488281 89.964844 151.695312 89.101562 152.101562 88.347656 C 152.527344 87.578125 153.105469 86.976562 153.84375 86.535156 C 154.578125 86.09375 155.402344 85.871094 156.324219 85.871094 C 157.101562 85.871094 157.792969 86.019531 158.398438 86.320312 C 159.023438 86.617188 159.515625 87.046875 159.882812 87.601562 C 160.265625 88.140625 160.5 88.78125 160.582031 89.523438 L 160.582031 92.359375 C 160.5 93.085938 160.265625 93.726562 159.882812 94.28125 C 159.503906 94.824219 159.007812 95.25 158.398438 95.5625 C 157.792969 95.863281 157.105469 96.011719 156.34375 96.011719 Z M 156.621094 94.582031 C 157.3125 94.582031 157.914062 94.433594 158.421875 94.132812 C 158.945312 93.835938 159.347656 93.414062 159.628906 92.875 C 159.925781 92.320312 160.074219 91.671875 160.074219 90.929688 C 160.074219 90.207031 159.925781 89.570312 159.628906 89.03125 C 159.347656 88.492188 158.945312 88.0625 158.421875 87.75 C 157.898438 87.4375 157.289062 87.28125 156.597656 87.28125 C 155.90625 87.28125 155.285156 87.4375 154.730469 87.75 C 154.195312 88.0625 153.769531 88.492188 153.460938 89.03125 C 153.164062 89.570312 153.015625 90.207031 153.015625 90.929688 C 153.015625 91.640625 153.171875 92.277344 153.480469 92.832031 C 153.792969 93.386719 154.214844 93.820312 154.753906 94.132812 C 155.289062 94.433594 155.914062 94.582031 156.621094 94.582031 Z M 170.566406 96.117188 L 170.566406 81.859375 L 172.050781 81.859375 L 172.050781 96.117188 Z M 168.042969 87.429688 L 168.042969 86.085938 L 174.554688 86.085938 L 174.554688 87.429688 Z M 183.847656 96.117188 L 183.847656 90.226562 C 183.847656 89.34375 183.585938 88.632812 183.0625 88.09375 C 182.554688 87.535156 181.875 87.257812 181.027344 87.257812 C 180.449219 87.257812 179.941406 87.386719 179.503906 87.644531 C 179.0625 87.898438 178.71875 88.25 178.464844 88.691406 C 178.207031 89.128906 178.082031 89.636719 178.082031 90.207031 L 177.402344 89.820312 C 177.402344 89.066406 177.578125 88.390625 177.933594 87.792969 C 178.285156 87.195312 178.761719 86.726562 179.355469 86.382812 C 179.960938 86.042969 180.652344 85.871094 181.429688 85.871094 C 182.195312 85.871094 182.875 86.050781 183.464844 86.40625 C 184.058594 86.746094 184.519531 87.222656 184.84375 87.835938 C 185.183594 88.449219 185.355469 89.160156 185.355469 89.96875 L 185.355469 96.117188 Z M 176.597656 96.117188 L 176.597656 81.003906 L 178.082031 81.003906 L 178.082031 96.117188 Z M 192.730469 96.332031 C 191.726562 96.332031 190.828125 96.105469 190.039062 95.648438 C 189.246094 95.191406 188.617188 94.566406 188.152344 93.769531 C 187.699219 92.972656 187.472656 92.078125 187.472656 91.082031 C 187.472656 90.097656 187.699219 89.214844 188.152344 88.433594 C 188.601562 87.636719 189.21875 87.011719 189.996094 86.554688 C 190.773438 86.097656 191.640625 85.871094 192.601562 85.871094 C 193.507812 85.871094 194.304688 86.078125 195 86.492188 C 195.707031 86.902344 196.257812 87.480469 196.652344 88.21875 C 197.0625 88.945312 197.269531 89.785156 197.269531 90.738281 C 197.269531 90.851562 197.261719 90.988281 197.246094 91.144531 C 197.230469 91.285156 197.203125 91.457031 197.160156 91.65625 L 188.53125 91.65625 L 188.53125 90.375 L 196.355469 90.375 L 195.824219 90.84375 C 195.839844 90.105469 195.714844 89.472656 195.445312 88.945312 C 195.191406 88.40625 194.816406 87.992188 194.320312 87.707031 C 193.839844 87.410156 193.253906 87.257812 192.5625 87.257812 C 191.839844 87.257812 191.210938 87.414062 190.675781 87.730469 C 190.136719 88.042969 189.714844 88.484375 189.402344 89.050781 C 189.105469 89.609375 188.957031 90.269531 188.957031 91.039062 C 188.957031 91.804688 189.113281 92.480469 189.421875 93.066406 C 189.75 93.648438 190.195312 94.105469 190.757812 94.433594 C 191.339844 94.757812 192.003906 94.921875 192.75 94.921875 C 193.359375 94.921875 193.917969 94.816406 194.425781 94.601562 C 194.9375 94.375 195.367188 94.039062 195.71875 93.597656 L 196.675781 94.582031 C 196.207031 95.136719 195.628906 95.570312 194.9375 95.882812 C 194.257812 96.183594 193.523438 96.332031 192.730469 96.332031 Z M 209.773438 96.332031 C 208.714844 96.332031 207.769531 96.097656 206.933594 95.628906 C 206.113281 95.144531 205.464844 94.488281 204.984375 93.664062 C 204.503906 92.824219 204.261719 91.882812 204.261719 90.84375 L 204.261719 81.433594 L 205.832031 81.433594 L 205.832031 90.761719 C 205.832031 91.585938 206 92.304688 206.339844 92.917969 C 206.679688 93.527344 207.144531 93.996094 207.738281 94.324219 C 208.347656 94.652344 209.027344 94.816406 209.773438 94.816406 C 210.523438 94.816406 211.1875 94.652344 211.769531 94.324219 C 212.363281 93.996094 212.828125 93.535156 213.167969 92.9375 C 213.519531 92.324219 213.695312 91.605469 213.695312 90.78125 L 213.695312 81.433594 L 215.246094 81.433594 L 215.246094 90.867188 C 215.246094 91.90625 215.003906 92.835938 214.523438 93.664062 C 214.058594 94.488281 213.40625 95.144531 212.574219 95.628906 C 211.753906 96.097656 210.820312 96.332031 209.773438 96.332031 Z M 221.472656 96.332031 C 220.9375 96.332031 220.421875 96.261719 219.925781 96.117188 C 219.429688 95.960938 218.980469 95.75 218.570312 95.476562 C 218.171875 95.207031 217.828125 94.886719 217.53125 94.515625 L 218.484375 93.535156 C 218.878906 94.019531 219.324219 94.382812 219.820312 94.625 C 220.328125 94.851562 220.894531 94.964844 221.515625 94.964844 C 222.179688 94.964844 222.695312 94.835938 223.0625 94.582031 C 223.445312 94.324219 223.636719 93.96875 223.636719 93.515625 C 223.636719 93.085938 223.5 92.753906 223.234375 92.511719 C 222.964844 92.269531 222.617188 92.078125 222.195312 91.933594 C 221.785156 91.792969 221.347656 91.65625 220.878906 91.527344 C 220.414062 91.386719 219.96875 91.214844 219.542969 91.015625 C 219.121094 90.804688 218.773438 90.511719 218.503906 90.140625 C 218.25 89.769531 218.125 89.289062 218.125 88.691406 C 218.125 88.121094 218.257812 87.628906 218.527344 87.214844 C 218.808594 86.789062 219.203125 86.460938 219.714844 86.234375 C 220.238281 85.992188 220.851562 85.871094 221.558594 85.871094 C 222.308594 85.871094 222.984375 86.007812 223.59375 86.277344 C 224.203125 86.546875 224.6875 86.945312 225.054688 87.472656 L 224.101562 88.433594 C 223.804688 88.050781 223.429688 87.757812 222.980469 87.558594 C 222.539062 87.34375 222.046875 87.238281 221.496094 87.238281 C 220.859375 87.238281 220.371094 87.367188 220.03125 87.621094 C 219.707031 87.863281 219.542969 88.183594 219.542969 88.582031 C 219.542969 88.96875 219.679688 89.273438 219.945312 89.5 C 220.214844 89.714844 220.554688 89.890625 220.964844 90.035156 C 221.386719 90.164062 221.832031 90.296875 222.300781 90.441406 C 222.765625 90.566406 223.210938 90.746094 223.636719 90.972656 C 224.058594 91.1875 224.398438 91.484375 224.652344 91.871094 C 224.921875 92.238281 225.054688 92.746094 225.054688 93.386719 C 225.054688 94.28125 224.730469 95 224.082031 95.542969 C 223.445312 96.066406 222.574219 96.332031 221.472656 96.332031 Z M 232.007812 96.332031 C 231.003906 96.332031 230.105469 96.105469 229.3125 95.648438 C 228.523438 95.191406 227.894531 94.566406 227.425781 93.769531 C 226.976562 92.972656 226.75 92.078125 226.75 91.082031 C 226.75 90.097656 226.976562 89.214844 227.425781 88.433594 C 227.878906 87.636719 228.496094 87.011719 229.273438 86.554688 C 230.050781 86.097656 230.917969 85.871094 231.878906 85.871094 C 232.785156 85.871094 233.582031 86.078125 234.273438 86.492188 C 234.980469 86.902344 235.535156 87.480469 235.929688 88.21875 C 236.339844 88.945312 236.542969 89.785156 236.542969 90.738281 C 236.542969 90.851562 236.535156 90.988281 236.523438 91.144531 C 236.507812 91.285156 236.480469 91.457031 236.4375 91.65625 L 227.808594 91.65625 L 227.808594 90.375 L 235.632812 90.375 L 235.101562 90.84375 C 235.117188 90.105469 234.988281 89.472656 234.71875 88.945312 C 234.464844 88.40625 234.089844 87.992188 233.597656 87.707031 C 233.117188 87.410156 232.53125 87.257812 231.835938 87.257812 C 231.117188 87.257812 230.488281 87.414062 229.949219 87.730469 C 229.414062 88.042969 228.988281 88.484375 228.679688 89.050781 C 228.382812 89.609375 228.234375 90.269531 228.234375 91.039062 C 228.234375 91.804688 228.386719 92.480469 228.699219 93.066406 C 229.023438 93.648438 229.46875 94.105469 230.035156 94.433594 C 230.613281 94.757812 231.277344 94.921875 232.027344 94.921875 C 232.636719 94.921875 233.195312 94.816406 233.703125 94.601562 C 234.210938 94.375 234.644531 94.039062 234.996094 93.597656 L 235.949219 94.582031 C 235.484375 95.136719 234.90625 95.570312 234.210938 95.882812 C 233.535156 96.183594 232.796875 96.332031 232.007812 96.332031 Z M 238.8125 96.117188 L 238.8125 86.085938 L 240.296875 86.085938 L 240.296875 96.117188 Z M 240.296875 90.269531 L 239.683594 89.992188 C 239.683594 88.726562 239.988281 87.722656 240.59375 86.980469 C 241.21875 86.242188 242.066406 85.871094 243.140625 85.871094 C 243.632812 85.871094 244.085938 85.964844 244.496094 86.148438 C 244.90625 86.320312 245.289062 86.597656 245.640625 86.980469 L 244.664062 88.027344 C 244.425781 87.757812 244.15625 87.566406 243.859375 87.453125 C 243.578125 87.335938 243.253906 87.28125 242.886719 87.28125 C 242.121094 87.28125 241.5 87.535156 241.019531 88.050781 C 240.539062 88.546875 240.296875 89.289062 240.296875 90.269531 Z M 252.507812 96.117188 L 252.507812 81.433594 L 254.054688 81.433594 L 254.054688 96.117188 Z M 264.679688 96.117188 L 264.679688 90.226562 C 264.679688 89.34375 264.417969 88.632812 263.894531 88.09375 C 263.386719 87.535156 262.707031 87.257812 261.859375 87.257812 C 261.28125 87.257812 260.769531 87.386719 260.332031 87.644531 C 259.894531 87.898438 259.546875 88.25 259.292969 88.691406 C 259.039062 89.128906 258.910156 89.636719 258.910156 90.207031 L 258.234375 89.820312 C 258.234375 89.066406 258.410156 88.390625 258.761719 87.792969 C 259.117188 87.195312 259.589844 86.726562 260.183594 86.382812 C 260.792969 86.042969 261.484375 85.871094 262.261719 85.871094 C 263.023438 85.871094 263.703125 86.058594 264.296875 86.425781 C 264.890625 86.796875 265.351562 87.296875 265.675781 87.921875 C 266.015625 88.546875 266.183594 89.230469 266.183594 89.96875 L 266.183594 96.117188 Z M 257.429688 96.117188 L 257.429688 86.085938 L 258.910156 86.085938 L 258.910156 96.117188 Z M 270.382812 96.117188 L 270.382812 81.859375 L 271.867188 81.859375 L 271.867188 96.117188 Z M 267.859375 87.429688 L 267.859375 86.085938 L 274.371094 86.085938 L 274.371094 87.429688 Z M 280.664062 96.332031 C 279.660156 96.332031 278.761719 96.105469 277.96875 95.648438 C 277.179688 95.191406 276.550781 94.566406 276.082031 93.769531 C 275.628906 92.972656 275.40625 92.078125 275.40625 91.082031 C 275.40625 90.097656 275.628906 89.214844 276.082031 88.433594 C 276.535156 87.636719 277.148438 87.011719 277.925781 86.554688 C 278.703125 86.097656 279.574219 85.871094 280.535156 85.871094 C 281.441406 85.871094 282.238281 86.078125 282.929688 86.492188 C 283.636719 86.902344 284.1875 87.480469 284.585938 88.21875 C 284.996094 88.945312 285.199219 89.785156 285.199219 90.738281 C 285.199219 90.851562 285.191406 90.988281 285.179688 91.144531 C 285.164062 91.285156 285.136719 91.457031 285.09375 91.65625 L 276.464844 91.65625 L 276.464844 90.375 L 284.289062 90.375 L 283.757812 90.84375 C 283.773438 90.105469 283.644531 89.472656 283.375 88.945312 C 283.121094 88.40625 282.746094 87.992188 282.253906 87.707031 C 281.773438 87.410156 281.183594 87.257812 280.492188 87.257812 C 279.773438 87.257812 279.144531 87.414062 278.605469 87.730469 C 278.070312 88.042969 277.644531 88.484375 277.332031 89.050781 C 277.035156 89.609375 276.886719 90.269531 276.886719 91.039062 C 276.886719 91.804688 277.042969 92.480469 277.355469 93.066406 C 277.679688 93.648438 278.125 94.105469 278.691406 94.433594 C 279.269531 94.757812 279.933594 94.921875 280.683594 94.921875 C 281.292969 94.921875 281.847656 94.816406 282.359375 94.601562 C 282.867188 94.375 283.296875 94.039062 283.652344 93.597656 L 284.605469 94.582031 C 284.140625 95.136719 283.558594 95.570312 282.867188 95.882812 C 282.1875 96.183594 281.453125 96.332031 280.664062 96.332031 Z M 287.46875 96.117188 L 287.46875 86.085938 L 288.953125 86.085938 L 288.953125 96.117188 Z M 288.953125 90.269531 L 288.339844 89.992188 C 288.339844 88.726562 288.644531 87.722656 289.25 86.980469 C 289.871094 86.242188 290.71875 85.871094 291.792969 85.871094 C 292.289062 85.871094 292.742188 85.964844 293.152344 86.148438 C 293.5625 86.320312 293.941406 86.597656 294.296875 86.980469 L 293.320312 88.027344 C 293.082031 87.757812 292.8125 87.566406 292.515625 87.453125 C 292.234375 87.335938 291.90625 87.28125 291.539062 87.28125 C 290.777344 87.28125 290.15625 87.535156 289.675781 88.050781 C 289.195312 88.546875 288.953125 89.289062 288.953125 90.269531 Z M 297.234375 96.117188 L 297.234375 84.378906 C 297.234375 83.679688 297.382812 83.0625 297.679688 82.519531 C 297.992188 81.980469 298.414062 81.558594 298.953125 81.261719 C 299.503906 80.949219 300.125 80.792969 300.816406 80.792969 C 301.355469 80.792969 301.828125 80.890625 302.238281 81.089844 C 302.648438 81.273438 303.023438 81.539062 303.363281 81.878906 L 302.386719 82.863281 C 302.160156 82.632812 301.921875 82.46875 301.667969 82.371094 C 301.425781 82.257812 301.144531 82.199219 300.816406 82.199219 C 300.152344 82.199219 299.636719 82.398438 299.269531 82.796875 C 298.917969 83.183594 298.742188 83.722656 298.742188 84.421875 L 298.742188 96.117188 Z M 294.734375 87.429688 L 294.734375 86.085938 L 302.070312 86.085938 L 302.070312 87.429688 Z M 307.800781 96.332031 C 306.851562 96.332031 306.003906 96.105469 305.253906 95.648438 C 304.507812 95.179688 303.914062 94.550781 303.472656 93.769531 C 303.050781 92.988281 302.839844 92.105469 302.839844 91.125 C 302.839844 90.125 303.050781 89.238281 303.472656 88.453125 C 303.914062 87.65625 304.507812 87.03125 305.253906 86.578125 C 306.003906 86.105469 306.84375 85.871094 307.777344 85.871094 C 308.542969 85.871094 309.21875 86.027344 309.8125 86.339844 C 310.421875 86.640625 310.910156 87.066406 311.277344 87.621094 C 311.65625 88.164062 311.890625 88.796875 311.976562 89.523438 L 311.976562 92.660156 C 311.890625 93.386719 311.65625 94.027344 311.277344 94.582031 C 310.910156 95.136719 310.421875 95.570312 309.8125 95.882812 C 309.21875 96.183594 308.546875 96.332031 307.800781 96.332031 Z M 308.03125 94.902344 C 309.066406 94.902344 309.890625 94.550781 310.511719 93.855469 C 311.148438 93.15625 311.46875 92.238281 311.46875 91.101562 C 311.46875 90.347656 311.320312 89.6875 311.023438 89.117188 C 310.738281 88.53125 310.335938 88.085938 309.8125 87.773438 C 309.304688 87.445312 308.703125 87.28125 308.011719 87.28125 C 307.304688 87.28125 306.675781 87.445312 306.125 87.773438 C 305.585938 88.097656 305.15625 88.554688 304.832031 89.136719 C 304.519531 89.707031 304.363281 90.363281 304.363281 91.101562 C 304.363281 91.839844 304.519531 92.496094 304.832031 93.066406 C 305.15625 93.636719 305.59375 94.082031 306.144531 94.410156 C 306.695312 94.738281 307.324219 94.902344 308.03125 94.902344 Z M 311.382812 96.117188 L 311.382812 93.429688 L 311.679688 90.953125 L 311.382812 88.539062 L 311.382812 86.085938 L 312.867188 86.085938 L 312.867188 96.117188 Z M 320.414062 96.332031 C 319.4375 96.332031 318.554688 96.105469 317.761719 95.648438 C 316.984375 95.179688 316.363281 94.546875 315.898438 93.75 C 315.445312 92.953125 315.21875 92.0625 315.21875 91.082031 C 315.21875 90.097656 315.445312 89.214844 315.898438 88.433594 C 316.363281 87.636719 316.984375 87.011719 317.761719 86.554688 C 318.554688 86.097656 319.4375 85.871094 320.414062 85.871094 C 321.164062 85.871094 321.863281 86.015625 322.511719 86.296875 C 323.164062 86.582031 323.714844 86.980469 324.167969 87.496094 L 323.191406 88.496094 C 322.851562 88.113281 322.441406 87.820312 321.960938 87.621094 C 321.480469 87.410156 320.964844 87.300781 320.414062 87.300781 C 319.707031 87.300781 319.078125 87.464844 318.527344 87.792969 C 317.976562 88.121094 317.542969 88.570312 317.234375 89.136719 C 316.921875 89.691406 316.765625 90.339844 316.765625 91.082031 C 316.765625 91.804688 316.921875 92.460938 317.234375 93.042969 C 317.542969 93.613281 317.976562 94.0625 318.527344 94.390625 C 319.078125 94.714844 319.707031 94.878906 320.414062 94.878906 C 320.980469 94.878906 321.503906 94.78125 321.984375 94.582031 C 322.464844 94.367188 322.875 94.070312 323.210938 93.683594 L 324.207031 94.6875 C 323.742188 95.214844 323.175781 95.621094 322.511719 95.90625 C 321.863281 96.1875 321.164062 96.332031 320.414062 96.332031 Z M 330.707031 96.332031 C 329.703125 96.332031 328.804688 96.105469 328.011719 95.648438 C 327.222656 95.191406 326.59375 94.566406 326.125 93.769531 C 325.671875 92.972656 325.449219 92.078125 325.449219 91.082031 C 325.449219 90.097656 325.671875 89.214844 326.125 88.433594 C 326.578125 87.636719 327.191406 87.011719 327.96875 86.554688 C 328.746094 86.097656 329.617188 85.871094 330.578125 85.871094 C 331.484375 85.871094 332.28125 86.078125 332.972656 86.492188 C 333.679688 86.902344 334.230469 87.480469 334.628906 88.21875 C 335.039062 88.945312 335.242188 89.785156 335.242188 90.738281 C 335.242188 90.851562 335.234375 90.988281 335.222656 91.144531 C 335.207031 91.285156 335.179688 91.457031 335.136719 91.65625 L 326.507812 91.65625 L 326.507812 90.375 L 334.332031 90.375 L 333.800781 90.84375 C 333.816406 90.105469 333.6875 89.472656 333.417969 88.945312 C 333.164062 88.40625 332.789062 87.992188 332.296875 87.707031 C 331.816406 87.410156 331.226562 87.257812 330.535156 87.257812 C 329.816406 87.257812 329.1875 87.414062 328.648438 87.730469 C 328.113281 88.042969 327.6875 88.484375 327.375 89.050781 C 327.078125 89.609375 326.929688 90.269531 326.929688 91.039062 C 326.929688 91.804688 327.085938 92.480469 327.398438 93.066406 C 327.722656 93.648438 328.167969 94.105469 328.734375 94.433594 C 329.3125 94.757812 329.976562 94.921875 330.726562 94.921875 C 331.335938 94.921875 331.890625 94.816406 332.402344 94.601562 C 332.910156 94.375 333.339844 94.039062 333.695312 93.597656 L 334.648438 94.582031 C 334.183594 95.136719 333.601562 95.570312 332.910156 95.882812 C 332.230469 96.183594 331.496094 96.332031 330.707031 96.332031 Z M 346.582031 96.332031 C 345.621094 96.332031 344.746094 96.097656 343.953125 95.628906 C 343.175781 95.15625 342.554688 94.523438 342.089844 93.726562 C 341.636719 92.929688 341.410156 92.039062 341.410156 91.058594 C 341.410156 90.089844 341.636719 89.214844 342.089844 88.433594 C 342.554688 87.652344 343.175781 87.03125 343.953125 86.578125 C 344.746094 86.105469 345.621094 85.871094 346.582031 85.871094 C 347.558594 85.871094 348.433594 86.097656 349.210938 86.554688 C 349.988281 87.011719 350.605469 87.636719 351.058594 88.433594 C 351.523438 89.214844 351.757812 90.089844 351.757812 91.058594 C 351.757812 92.054688 351.523438 92.953125 351.058594 93.75 C 350.605469 94.53125 349.988281 95.15625 349.210938 95.628906 C 348.433594 96.097656 347.558594 96.332031 346.582031 96.332031 Z M 346.582031 94.878906 C 347.289062 94.878906 347.910156 94.714844 348.449219 94.390625 C 349 94.0625 349.429688 93.605469 349.742188 93.023438 C 350.066406 92.4375 350.230469 91.785156 350.230469 91.058594 C 350.230469 90.332031 350.066406 89.691406 349.742188 89.136719 C 349.429688 88.570312 349 88.121094 348.449219 87.792969 C 347.910156 87.464844 347.289062 87.300781 346.582031 87.300781 C 345.890625 87.300781 345.269531 87.464844 344.71875 87.792969 C 344.167969 88.121094 343.734375 88.570312 343.425781 89.136719 C 343.113281 89.691406 342.957031 90.332031 342.957031 91.058594 C 342.957031 91.800781 343.113281 92.460938 343.425781 93.042969 C 343.734375 93.613281 344.167969 94.0625 344.71875 94.390625 C 345.269531 94.714844 345.890625 94.878906 346.582031 94.878906 Z M 355.230469 96.117188 L 355.230469 84.378906 C 355.230469 83.679688 355.378906 83.0625 355.675781 82.519531 C 355.984375 81.980469 356.410156 81.558594 356.945312 81.261719 C 357.496094 80.949219 358.121094 80.792969 358.8125 80.792969 C 359.347656 80.792969 359.824219 80.890625 360.230469 81.089844 C 360.640625 81.273438 361.015625 81.539062 361.355469 81.878906 L 360.378906 82.863281 C 360.15625 82.632812 359.914062 82.46875 359.660156 82.371094 C 359.417969 82.257812 359.136719 82.199219 358.8125 82.199219 C 358.148438 82.199219 357.632812 82.398438 357.265625 82.796875 C 356.910156 83.183594 356.734375 83.722656 356.734375 84.421875 L 356.734375 96.117188 Z M 352.726562 87.429688 L 352.726562 86.085938 L 360.0625 86.085938 L 360.0625 87.429688 Z M 365.363281 96.117188 L 371.34375 81.433594 L 372.507812 81.433594 L 378.425781 96.117188 L 376.75 96.117188 L 371.597656 83.140625 L 372.210938 83.140625 L 367.019531 96.117188 Z M 368.097656 92.296875 L 368.097656 90.910156 L 375.730469 90.910156 L 375.730469 92.296875 Z M 380.917969 96.117188 L 380.917969 81.433594 L 382.464844 81.433594 L 382.464844 96.117188 Z M 380.917969 96.117188 " fill-opacity="1" fill-rule="nonzero"/></g></svg>